<svg xmlns="http://www.w3.org/2000/svg" viewBox="0 0 1920 1080"><defs><style>.cls-1{fill:#e5ded1;}.cls-2{fill:#fff;}</style></defs><title>Artboard 3</title><g id="Layer_1" data-name="Layer 1"><rect class="cls-1" x="-1.27" y="2.08" width="1919.75" height="1080.65"/><path class="cls-2" d="M1819.91,154.72a3.66,3.66,0,0,0-.34.23c-.43.36-.43.37-.83,0l-16.4-16.4c-.46-.46-.45-.45,0-.94a12.3,12.3,0,0,1,18.94,15.71,2.26,2.26,0,0,0-.17.28Z"/><path class="cls-2" d="M1815.95,94.67l.38.55a6.92,6.92,0,1,1-1.63-1.65l.51.37Z"/><path class="cls-2" d="M1814.16,126a9.23,9.23,0,1,1,13.13,0A9.12,9.12,0,0,1,1814.16,126Z"/><path class="cls-2" d="M1798.64,87a5.13,5.13,0,0,1,0,7.33,5.18,5.18,0,1,1-7.31-7.35A5.14,5.14,0,0,1,1798.64,87Z"/><path class="cls-2" d="M1783,86.9a3.88,3.88,0,1,1-5.48,0A3.81,3.81,0,0,1,1783,86.9Z"/><path class="cls-2" d="M1767.6,988.37a3.66,3.66,0,0,0-.23-.34c-.36-.43-.37-.43,0-.83l16.4-16.4c.46-.46.45-.45.94,0A12.3,12.3,0,0,1,1769,989.71a2.26,2.26,0,0,0-.28-.17Z"/><path class="cls-2" d="M1827.66,984.41l-.55.38a6.92,6.92,0,1,1,1.65-1.63l-.37.51Z"/><path class="cls-2" d="M1796.28,982.62a9.23,9.23,0,1,1,0,13.13A9.12,9.12,0,0,1,1796.28,982.62Z"/><path class="cls-2" d="M1835.35,967.11a5.13,5.13,0,0,1-7.33,0,5.18,5.18,0,1,1,7.35-7.31A5.14,5.14,0,0,1,1835.35,967.11Z"/><path class="cls-2" d="M1835.43,951.5a3.88,3.88,0,1,1,0-5.48A3.81,3.81,0,0,1,1835.43,951.5Z"/><path class="cls-2" d="M108.29,929.16a3.66,3.66,0,0,0,.34-.23c.43-.36.43-.37.83,0l16.4,16.4c.46.46.45.45,0,.94A12.3,12.3,0,0,1,107,930.61a2.26,2.26,0,0,0,.17-.28Z"/><path class="cls-2" d="M112.25,989.22l-.38-.55a6.92,6.92,0,1,1,1.63,1.65L113,990Z"/><path class="cls-2" d="M114,957.84a9.23,9.23,0,1,1-13.13,0A9.12,9.12,0,0,1,114,957.84Z"/><path class="cls-2" d="M129.55,996.91a5.13,5.13,0,0,1,0-7.33,5.18,5.18,0,1,1,7.31,7.35A5.14,5.14,0,0,1,129.55,996.91Z"/><path class="cls-2" d="M145.16,997a3.88,3.88,0,1,1,5.48,0A3.81,3.81,0,0,1,145.16,997Z"/><path class="cls-2" d="M160.59,95.51a3.66,3.66,0,0,0,.23.34c.36.43.37.43,0,.83l-16.4,16.4c-.46.46-.45.45-.94,0a12.3,12.3,0,0,1,15.71-18.94,2.26,2.26,0,0,0,.28.17Z"/><path class="cls-2" d="M100.53,99.47l.55-.38a6.92,6.92,0,1,1-1.65,1.63l.37-.51Z"/><path class="cls-2" d="M131.91,101.26a9.23,9.23,0,1,1,0-13.13A9.12,9.12,0,0,1,131.91,101.26Z"/><path class="cls-2" d="M92.84,116.78a5.13,5.13,0,0,1,7.33,0,5.18,5.18,0,1,1-7.35,7.31A5.14,5.14,0,0,1,92.84,116.78Z"/><path class="cls-2" d="M92.77,132.38a3.88,3.88,0,1,1,0,5.48A3.81,3.81,0,0,1,92.77,132.38Z"/></g><g id="Layer_2" data-name="Layer 2"><path class="cls-2" d="M1797.64,1015.84a53,53,0,0,1-44.93-24.69l-.08-.1c-.08-.11-.16-.21-.25-.31l-.16-.19a1.46,1.46,0,0,0-.13-.16l-.16-.14-.13-.1c-.17-.14-.28-.23-.39-.31l-.08-.05-.22-.11a3.23,3.23,0,0,0-.45-.23l-.26-.08-.1,0a3.66,3.66,0,0,0-.43-.12l-.31,0a4.08,4.08,0,0,0-.82,0h-.12a2.76,2.76,0,0,0-.42.06l-.28.07-.16,0-.34.1-.35.18a1.66,1.66,0,0,1-.27.13,1,1,0,0,0-.15.09l-.29.23-.19.16a1.61,1.61,0,0,0-.17.15,1.42,1.42,0,0,0-.13.16l-.12.13c-.13.18-.22.28-.3.39l-.08.1a53,53,0,0,1-44.93,24.7H221.28a53,53,0,0,1-44.93-24.68l-.09-.13c-.07-.1-.16-.19-.24-.3l-.17-.2a.79.79,0,0,0-.14-.17s-.1-.08-.14-.13l-.13-.1a4.08,4.08,0,0,0-.4-.31l-.08-.05-.22-.11a4.36,4.36,0,0,0-.45-.23l-.27-.09-.1,0-.43-.11-.34,0a4.2,4.2,0,0,0-.79,0l-.12,0a1.88,1.88,0,0,0-.4.05,1.85,1.85,0,0,0-.31.08l-.16,0-.31.1-.37.19-.26.13-.13.08a2.29,2.29,0,0,0-.31.25l-.2.16-.16.14-.13.16-.1.12c-.14.18-.22.28-.3.39l-.08.1a53.24,53.24,0,1,1-73.49-73.49l.1-.08a3.53,3.53,0,0,0,.61-.47l.08-.08a5.21,5.21,0,0,0,.42-.49l1,.45-.9-.6.08-.12c0-.1.07-.16.1-.23s.16-.3.22-.43.06-.19.1-.29l0-.1.11-.4c0-.13,0-.26,0-.4s0-.32,0-.43,0-.23,0-.36,0-.34-.05-.47-.06-.22-.1-.34l0-.16c0-.1-.06-.19-.1-.29A3.42,3.42,0,0,0,97,912c-.06-.13-.1-.19-.13-.27l-.07-.1a2.59,2.59,0,0,0-.23-.3l-.17-.21a1.17,1.17,0,0,0-.16-.17.61.61,0,0,0-.14-.13l-.13-.1a3.48,3.48,0,0,0-.4-.31l-.1-.08A53,53,0,0,1,70.8,865.37v-649a53,53,0,0,1,24.7-44.93l.11-.08a2.66,2.66,0,0,0,.33-.26l.19-.16.15-.13a1.85,1.85,0,0,0,.15-.18l.1-.12a3.2,3.2,0,0,0,.29-.37l.07-.09c0-.11.08-.17.11-.24s.16-.29.22-.42.06-.19.1-.29l0-.11c.05-.17.08-.28.11-.4s0-.25,0-.38,0-.32,0-.45,0-.23,0-.34,0-.35-.05-.49-.06-.22-.1-.33l0-.17c0-.1-.06-.19-.1-.28a2.84,2.84,0,0,0-.19-.37l-.13-.27-.2-.29a3.81,3.81,0,0,0-.42-.49l-.08-.08a3.37,3.37,0,0,0-.61-.49l-.1-.07A53.24,53.24,0,1,1,169,90.53l.08.11.25.32.16.19a1.61,1.61,0,0,0,.14.17c0,.05.1.09.16.14l.13.1a3.15,3.15,0,0,0,.39.31l.08.05.23.13a4.29,4.29,0,0,0,.43.21l.31.11.16,0,.31.08a3.88,3.88,0,0,0,.4.05h.12a3.56,3.56,0,0,0,.69,0,2.34,2.34,0,0,0,.45-.05,2,2,0,0,0,.36-.1l.17,0a1.87,1.87,0,0,0,.27-.1,2.74,2.74,0,0,0,.42-.2l.23-.11.1-.07c.12-.08.22-.17.34-.26l.19-.16.16-.13a1.4,1.4,0,0,0,.13-.16L176,91c.13-.16.22-.26.28-.37l.08-.12a53,53,0,0,1,44.93-24.68H1700.41a53,53,0,0,1,44.93,24.68l.07.1c.08.12.17.22.25.33l.17.2.13.16.16.14.14.1a3.65,3.65,0,0,0,.36.3l.1.05.25.13a3.49,3.49,0,0,0,.41.21,2.57,2.57,0,0,0,.35.12l.16,0a2,2,0,0,0,.28.07,2.81,2.81,0,0,0,.42.05,2.88,2.88,0,0,0,.82,0,2,2,0,0,0,.42-.05l.38-.1.16,0a1.56,1.56,0,0,0,.26-.1,2.36,2.36,0,0,0,.41-.2,1.29,1.29,0,0,1,.24-.11l.1-.07a2.83,2.83,0,0,0,.32-.25l.2-.16.16-.13c0-.06.1-.11.13-.17l.11-.13c.13-.17.22-.27.29-.37l.08-.12a53.25,53.25,0,1,1,73.49,73.5l-.1.06a4.69,4.69,0,0,0-.62.49l-.09.1c-.13.14-.27.31-.4.48l-.19.26a1.6,1.6,0,0,1-.1.22c-.09.17-.16.31-.22.43l-.1.31-.05.16-.09.33a3.56,3.56,0,0,0,0,.38v.12a2.5,2.5,0,0,0,0,.33,2.28,2.28,0,0,0,0,.34v.13a3.11,3.11,0,0,0,0,.37l.09.34.05.15a3.28,3.28,0,0,0,.1.31,3.61,3.61,0,0,0,.21.41l.11.22.07.12c.07.1.15.2.23.3l.17.2a.81.81,0,0,0,.15.17l.13.13.14.1a3.21,3.21,0,0,0,.4.32l.1.07a53,53,0,0,1,24.71,44.93v649a53,53,0,0,1-24.71,44.93l-.11.09a3.59,3.59,0,0,0-.34.26l-.19.16s-.1.07-.14.13a.83.83,0,0,0-.14.17l-.1.12a2.68,2.68,0,0,0-.3.38l-.06.08c0,.1-.08.17-.11.23s-.16.29-.22.43-.07.2-.1.31l-.05.14-.09.34a3.11,3.11,0,0,0,0,.37v.13a2.38,2.38,0,0,0,0,.34,2.59,2.59,0,0,0,0,.34v.12a3.25,3.25,0,0,0,0,.37l.09.34.05.15c0,.1.06.2.1.3a3,3,0,0,0,.21.41l.11.23.15.23c.18.24.31.4.46.55l.08.08a5.25,5.25,0,0,0,.62.49l.1.06a53.24,53.24,0,0,1-28.55,98.19ZM1751,987.27l.47.15c.22.09.43.21.64.32l.4.2.17.13a4.85,4.85,0,0,1,.44.34l.16.13c.11.1.23.19.34.29l.3.34.07.1a5.38,5.38,0,0,1,.45.58,51.09,51.09,0,1,0,70.55-70.4l-.12-.09a7.2,7.2,0,0,1-.87-.69l-.11-.12a7.5,7.5,0,0,1-.64-.76l-.16-.22-.09-.13a2.45,2.45,0,0,1-.16-.31,5.6,5.6,0,0,1-.35-.72,3.52,3.52,0,0,1-.17-.52l1-.44-1,.31c-.05-.18-.1-.36-.15-.54s-.05-.4-.07-.58l1.05-.23-1.07.1a3.82,3.82,0,0,1,0-1.07l1.09,0-1.08-.1c0-.19,0-.39.07-.59s.1-.36.15-.54l1.08.17-1-.31a3.57,3.57,0,0,1,.17-.52,4.45,4.45,0,0,1,.31-.63c.09-.19.13-.29.2-.4l.13-.16a3.27,3.27,0,0,1,.33-.43l.13-.16c.1-.11.2-.24.31-.34a3.66,3.66,0,0,1,.31-.28l.1-.07a6.4,6.4,0,0,1,.6-.48,51,51,0,0,0,23.84-43.21v-649A50.88,50.88,0,0,0,1825,173.18l-.16-.13a4,4,0,0,1-.47-.37l-.15-.13a3.56,3.56,0,0,1-.31-.27c-.1-.1-.2-.23-.31-.35l-.08-.1a5.83,5.83,0,0,1-.43-.56l-.07-.1a2.6,2.6,0,0,1-.16-.32,6.18,6.18,0,0,1-.35-.72,4.11,4.11,0,0,1-.18-.52l1-.45-1,.32c-.05-.18-.1-.36-.15-.55s-.05-.38-.07-.58l1.05-.22-1.07.1a4.31,4.31,0,0,1,0-.55,4.26,4.26,0,0,1,0-.53l1.09,0L1822,167c0-.19,0-.4.07-.58s.1-.37.15-.55l1.08.19-1-.31a3.57,3.57,0,0,1,.17-.52,4.9,4.9,0,0,1,.31-.63,4.43,4.43,0,0,1,.21-.4l.1-.14.13-.17a6.33,6.33,0,0,1,.66-.77l.12-.13a6.61,6.61,0,0,1,.93-.72,51.08,51.08,0,1,0-70.42-70.54l-.13.16a4.53,4.53,0,0,1-.34.44l-.13.15c-.1.13-.2.24-.3.35l-.34.28-.1.08c-.23.19-.4.33-.58.46l-.08.06-.31.16c-.31.16-.51.28-.73.37a4.85,4.85,0,0,1-.47.16l-.44-1,.31,1a5.62,5.62,0,0,1-.61.16,4.13,4.13,0,0,1-.52.07,5.82,5.82,0,0,1-1.24,0c-.3,0-.52,0-.74-.09a4.87,4.87,0,0,1-.48-.13l.16-1.08-.3,1c-.2-.06-.39-.11-.58-.19A4.13,4.13,0,0,1,1746,94l-.14-.07a2.8,2.8,0,0,1-.33-.18l-.17-.13a4.93,4.93,0,0,1-.42-.32l-.16-.14a3.5,3.5,0,0,1-.34-.3,3,3,0,0,1-.29-.33l-.08-.1a4.27,4.27,0,0,1-.45-.59l-.07-.09A50.9,50.9,0,0,0,1700.41,68H221.28a50.89,50.89,0,0,0-43.14,23.74l-.13.16a3.17,3.17,0,0,1-.33.43l-.13.18c-.09.11-.19.22-.29.33a3,3,0,0,1-.33.28l-.1.08a7.32,7.32,0,0,1-.59.46l-.09.06a2.07,2.07,0,0,1-.31.16c-.3.16-.51.28-.73.37l-.47.16-.46-1,.31,1a5.23,5.23,0,0,1-.56.15,5.32,5.32,0,0,1-.56.07,5.61,5.61,0,0,1-1.22,0,6.3,6.3,0,0,1-.72-.09,3.34,3.34,0,0,1-.52-.14l.16-1.08-.3,1a4.85,4.85,0,0,1-1.13-.47l-.11-.05a2.64,2.64,0,0,1-.32-.18l-.17-.13a5.4,5.4,0,0,1-.44-.34l-.15-.13a3.25,3.25,0,0,1-.64-.64l-.08-.1a4.89,4.89,0,0,1-.44-.58l-.07-.08a51.08,51.08,0,1,0-70.49,70.49l.13.08a5.78,5.78,0,0,1,.87.69l.12.12a6.36,6.36,0,0,1,.64.75l.16.22.08.1a3.38,3.38,0,0,1,.17.33h0l.07.13a5.11,5.11,0,0,1,.28.58,4,4,0,0,1,.17.5l-1,.46,1-.31a4.15,4.15,0,0,1,.14.53,4.55,4.55,0,0,1,.08.63,5.06,5.06,0,0,1,0,.62,3.5,3.5,0,0,1,0,.57,4.06,4.06,0,0,1-.08.68c0,.19-.09.37-.13.55l-1.09-.15,1,.31a4,4,0,0,1-.17.5,5.68,5.68,0,0,1-.28.58l-.07.13c-.05.1-.1.21-.16.32l-.13.17a5,5,0,0,1-.32.41l-.13.17c-.1.12-.2.25-.31.35s-.21.19-.31.28l-.1.07a5.12,5.12,0,0,1-.61.47l-.09.07A50.88,50.88,0,0,0,73,216.32v649a50.88,50.88,0,0,0,23.75,43.14l.16.13a3.43,3.43,0,0,1,.46.36l.16.13.31.27c.11.11.21.24.31.35l.07.1c.21.24.33.4.45.57l.07.09c.07.11.11.22.16.32L99,911a5,5,0,0,1,.28.58,4.47,4.47,0,0,1,.17.5l-1,.47,1-.31c0,.18.1.35.13.54a5.77,5.77,0,0,1,.08.62,5.27,5.27,0,0,1,0,.64,3.72,3.72,0,0,1,0,.57,4.16,4.16,0,0,1-.08.68,4.26,4.26,0,0,1-.14.54l-1.08-.15,1,.31a5,5,0,0,1-.17.5A5.65,5.65,0,0,1,99,917l-.07.14a2.45,2.45,0,0,1-.16.31l-.11.15-.11.16a7.26,7.26,0,0,1-.66.78l-.13.13a6.07,6.07,0,0,1-.92.72,51.08,51.08,0,1,0,70.42,70.54l.13-.17a4.35,4.35,0,0,1,.34-.44l.12-.14a3.44,3.44,0,0,1,.3-.35,4.36,4.36,0,0,1,.34-.29l.1-.08c.22-.18.39-.32.57-.45l.1-.07a3.15,3.15,0,0,1,.32-.16l.58.92-.45-1a4.23,4.23,0,0,1,.58-.29,4.3,4.3,0,0,1,.53-.17l.46,1-.31-1c.17,0,.34-.1.52-.13A4.39,4.39,0,0,1,172,987a5.13,5.13,0,0,1,1.22,0c.28,0,.46,0,.66.08a4.91,4.91,0,0,1,.54.15l-.13,1.08.31-1c.16.05.31.1.48.16a7,7,0,0,1,.64.31l.4.2.17.13a4.54,4.54,0,0,1,.45.35l.16.13a2.88,2.88,0,0,1,.32.28c.1.12.21.22.3.34l.08.11a4.89,4.89,0,0,1,.45.58l.07.09a50.88,50.88,0,0,0,43.14,23.73H1700.41a50.88,50.88,0,0,0,43.14-23.73l.12-.16a4,4,0,0,1,.36-.46l.13-.16a3.86,3.86,0,0,1,.29-.33,3.5,3.5,0,0,1,.34-.3l.1-.08c.22-.19.39-.32.56-.44l.1-.07.33-.17.59.91-.45-1a3.85,3.85,0,0,1,.56-.28,5.81,5.81,0,0,1,.57-.19l.44,1-.31-1a4.89,4.89,0,0,1,1.12-.2l.21,1.06-.1-1.08a5.25,5.25,0,0,1,1.14,0,4.68,4.68,0,0,1,.61.07,5.74,5.74,0,0,1,.59.16l-.16,1.08Z"/><path class="cls-2" d="M1797.64,1028.26a65.35,65.35,0,0,1-48.62-21.51,65.35,65.35,0,0,1-48.61,21.51H221.28a65.36,65.36,0,0,1-48.62-21.52A65.66,65.66,0,1,1,79.91,914a65.34,65.34,0,0,1-21.53-48.62v-649A65.35,65.35,0,0,1,79.91,167.7a65.66,65.66,0,1,1,92.75-92.75,65.39,65.39,0,0,1,48.62-21.52H1700.41A65.36,65.36,0,0,1,1749,74.95a65.66,65.66,0,1,1,92.76,92.75,65.32,65.32,0,0,1,21.53,48.62v649A65.31,65.31,0,0,1,1841.78,914a65.66,65.66,0,0,1-44.14,114.27ZM1749,998.35l2.09,2.54a60.26,60.26,0,1,0,84.82-84.82l-2.55-2.09,2.55-2.09a59.94,59.94,0,0,0,22-46.53v-649a59.94,59.94,0,0,0-22-46.53l-2.55-2.09,2.55-2.08a60.26,60.26,0,1,0-84.82-84.83L1749,83.34l-2.09-2.55a60,60,0,0,0-46.53-22H221.28a60,60,0,0,0-46.53,22l-2.09,2.55-2.08-2.55a60.26,60.26,0,1,0-84.82,84.83l2.54,2.08-2.54,2.09a59.92,59.92,0,0,0-22,46.53v649a59.92,59.92,0,0,0,22,46.53L88.3,914l-2.54,2.09a60.26,60.26,0,1,0,84.82,84.82l2.08-2.54,2.09,2.54a60,60,0,0,0,46.53,22H1700.41a60,60,0,0,0,46.53-22Z"/></g></svg>