<svg xmlns="http://www.w3.org/2000/svg" viewBox="0 0 1920 1080"><defs><style>.cls-1{isolation:isolate;}.cls-2{fill:#f9ca31;}.cls-3{mix-blend-mode:hard-light;}.cls-4{fill:#495760;}.cls-5{fill:#223a56;}.cls-6{fill:#e2e1d5;}.cls-7{fill:#faaf40;}.cls-8{fill:#f4edae;}</style></defs><title>Artboard 1</title><g class="cls-1"><g id="Layer_1" data-name="Layer 1"><path class="cls-2" d="M906.82,849.86h1l7.1,7.68,7.08-7.68h1l1.49,19.66h-3.93l-.87-11.38-4.8,5.19-4.8-5.19-.89,11.38H905.3Z"/><path class="cls-2" d="M932.88,849.86h1l7.1,7.68,7.08-7.68h1l1.49,19.66h-3.93l-.87-11.38-4.8,5.19-4.8-5.19-.89,11.38h-3.93Z"/><path class="cls-2" d="M956.13,849.86h4.64l3.7,5.87,3.67-5.87h4.64l-6,9.57,6.34,10.09h-4.64l-4-6.4-4,6.4h-4.64l6.32-10.09Z"/><path class="cls-2" d="M986.62,869.52h-1.18L974.7,849.86h4.48L986,862.41l6.84-12.56h4.48Z"/><path class="cls-2" d="M1005,869.52H1001V849.86H1005Z"/><g class="cls-3"><path class="cls-4" d="M722.24,506.65H722v41.66H690.79l-31.24-10.42h31.24l20.83-20.83V496.23h3.75Zm15.41-83.32H722v20.83H711.62V412.91h5.21A26.24,26.24,0,0,1,737.66,423.33Zm73.53,125H773.9l-31.24-10.42h37.29l14.79-14.79Zm-5.83-98.94a57.74,57.74,0,0,1-20.21,43.74l-17.29-26.25a57.41,57.41,0,0,0,27.08-48.74v-1.67A57.76,57.76,0,0,1,805.35,449.37Z"/><path class="cls-4" d="M993.44,392.08v88.53a67.57,67.57,0,0,1-89.15,64.16c-5.21-1.67-26.25-8.54-31.45-10.42a68.43,68.43,0,0,0,21.66,3.54,67.36,67.36,0,0,0,47.91-19.79c3.33-3.54,17.29-17.29,20.83-20.83A67.36,67.36,0,0,0,983,449.37V388.54ZM878.88,449.37V388.54l10.41,3.54V475A36.58,36.58,0,0,1,878.88,449.37Z"/><path class="cls-4" d="M1083,392.08V548.31h-31.25l-31.25-10.42h31.25l20.83-20.83V388.54Z"/><path class="cls-4" d="M1176.74,476.44v71.86h-31.25l-31.25-10.42h31.25l20.83-20.83V466.45Zm104.15-84.36V548.31h-8.54l-31.25-10.42h8.54l20.83-20.83V388.54Z"/></g><path class="cls-5" d="M779.94,537.89H742.66l-27.29-41.66h-3.75v20.83l-20.83,20.83H659.55V381.67l20.83-20.83h57.28a57.33,57.33,0,0,1,30.2,106l32.91,50.2ZM760.36,465A52.08,52.08,0,0,0,737.66,366H685.58V511.85h20.83V470.2h32.49l27.29,41.66h25Zm-22.7-15.62a31.24,31.24,0,0,0,0-62.49H706.41v62.49Zm-26-5.21V412.91h5.21a26,26,0,0,1,26,26,34.16,34.16,0,0,1-.42,4.79,37.24,37.24,0,0,1-4.79.42Z"/><path class="cls-5" d="M983,360.84v88.53a67.36,67.36,0,0,1-19.79,47.91c-3.54,3.54-17.5,17.29-20.83,20.83A67.75,67.75,0,0,1,826.81,470.2V381.67l20.83-20.83h31.25v88.53a36.36,36.36,0,0,0,36.45,36.45,34.24,34.24,0,0,0,13.12-2.5A34.24,34.24,0,0,0,931,470.2V381.67l20.83-20.83ZM977.82,366H957v83.32a41.66,41.66,0,1,1-83.32,0V366H852.84v83.32a62.49,62.49,0,0,0,125,0Z"/><path class="cls-5" d="M1072.59,517.06l-20.83,20.83h-31.25V381.67l20.83-20.83h31.25Zm-5.21-151h-20.83V511.85h20.83Z"/><path class="cls-5" d="M1270.47,360.84V517.06l-20.83,20.83h-8.54l-74.78-71.45v50.62l-20.83,20.83h-31.25V381.67l20.83-20.83h8.33l75,71.45V381.67l20.83-20.83Zm-26,5.21v98.32L1141.33,366h-1V511.85h20.83V413.54L1264,511.85h1.25V366Z"/><path class="cls-6" d="M800.77,517.06H763.49L736.2,475.4H711.62v41.66H680.38V360.84h57.28a57.33,57.33,0,0,1,30.2,106Zm-63.11-72.9a26,26,0,1,0,0-52.07h-26v52.07Z"/><path class="cls-6" d="M983,449.37a67.7,67.7,0,0,1-135.39,0V360.84h31.25v88.53a36.45,36.45,0,1,0,72.9,0V360.84H983Z"/><path class="cls-6" d="M1072.59,517.06h-31.25V360.84h31.25Z"/><path class="cls-6" d="M1135.08,360.84h8.33l95.82,91.23V360.84h31.24V517.06h-8.54l-95.61-91.23v91.23h-31.25Z"/><path class="cls-7" d="M791.19,511.85h-25L738.91,470.2H706.41v41.66H685.58V366h52.07A52.08,52.08,0,0,1,760.36,465Zm-84.78-62.49h31.24a31.24,31.24,0,0,0,0-62.49H706.41Z"/><path class="cls-7" d="M915.33,511.85a62.41,62.41,0,0,1-62.49-62.49V366h20.83v83.32a41.66,41.66,0,1,0,83.32,0V366h20.83v83.32A62.41,62.41,0,0,1,915.33,511.85Z"/><path class="cls-7" d="M1067.38,511.85h-20.83V366h20.83Z"/><path class="cls-7" d="M1265.26,366V511.85H1264l-102.9-98.32v98.32h-20.83V366h1l103.11,98.32V366Z"/><path class="cls-8" d="M696,381.67a5.21,5.21,0,1,1,5.21-5.21A5.16,5.16,0,0,1,696,381.67Zm0,20.83a5.21,5.21,0,1,1,5.21-5.21A5.16,5.16,0,0,1,696,402.5Zm0,20.83a5.21,5.21,0,1,1,5.21-5.21A5.16,5.16,0,0,1,696,423.33Zm0,20.83a5.21,5.21,0,1,1,5.21-5.21A5.16,5.16,0,0,1,696,444.16ZM696,465a5.21,5.21,0,1,1,5.21-5.21A5.16,5.16,0,0,1,696,465Zm0,20.83a5.21,5.21,0,1,1,5.21-5.21A5.16,5.16,0,0,1,696,485.82Zm0,20.83a5.21,5.21,0,1,1,5.21-5.21A5.16,5.16,0,0,1,696,506.65Zm20.83-125a5.21,5.21,0,1,1,5.21-5.21A5.16,5.16,0,0,1,716.83,381.67Zm0,83.32a5.21,5.21,0,1,1,5.21-5.21A5.16,5.16,0,0,1,716.83,465Zm20.83-83.32a5.21,5.21,0,1,1,5.21-5.21A5.16,5.16,0,0,1,737.66,381.67Zm1,83.32a5.21,5.21,0,1,1,5.21-5.21A5.16,5.16,0,0,1,738.7,465Zm15.62,14.58a5.21,5.21,0,0,1,0-10.42,5.21,5.21,0,1,1,0,10.42Zm4.17-92.28a5.29,5.29,0,0,1-5.21-5.21,5.16,5.16,0,0,1,5.21-5.21,5.29,5.29,0,0,1,5.21,5.21A5.44,5.44,0,0,1,758.49,387.29Zm.63,71.65a5.21,5.21,0,1,1,0-10.42,5.21,5.21,0,0,1,0,10.42Zm4,34.16a5.21,5.21,0,1,1,5.21-5.21A5.16,5.16,0,0,1,763.07,493.11Zm8.75,13.54a5.21,5.21,0,1,1,5.21-5.21A5.16,5.16,0,0,1,771.82,506.65Zm1.67-104.57a5.16,5.16,0,0,1-5.21-5.21,5.21,5.21,0,0,1,10.42,0A5.16,5.16,0,0,1,773.49,402.08Zm.63,41.45a5.21,5.21,0,1,1,5.21-5.21A5.16,5.16,0,0,1,774.11,443.53Zm5.21-20.83a5.29,5.29,0,0,1-5.21-5.21,5.21,5.21,0,1,1,10.41,0A5.29,5.29,0,0,1,779.32,422.7Z"/><path class="cls-8" d="M863.26,381.67a5.21,5.21,0,1,1,5.21-5.21A5.16,5.16,0,0,1,863.26,381.67Zm0,20.83a5.21,5.21,0,1,1,5.21-5.21A5.16,5.16,0,0,1,863.26,402.5Zm0,20.83a5.21,5.21,0,1,1,5.21-5.21A5.16,5.16,0,0,1,863.26,423.33Zm0,20.83a5.21,5.21,0,1,1,5.21-5.21A5.16,5.16,0,0,1,863.26,444.16Zm.83,20a5.21,5.21,0,1,1,5.21-5.21A5.16,5.16,0,0,1,864.09,464.15Zm7.71,19A5.21,5.21,0,1,1,877,477.9,5.16,5.16,0,0,1,871.8,483.11Zm14.37,14.58a5.21,5.21,0,1,1,5.21-5.21A5.16,5.16,0,0,1,886.17,497.69Zm18.75,7.92a5.21,5.21,0,1,1,0-10.41,5.21,5.21,0,1,1,0,10.41Zm20.62,0a5.21,5.21,0,1,1,5.21-5.21A5.16,5.16,0,0,1,925.54,505.61Zm18.75-7.71a5.44,5.44,0,0,1-5.21-5.21,5.29,5.29,0,0,1,5.21-5.21,5.16,5.16,0,0,1,5.21,5.21A5.29,5.29,0,0,1,944.29,497.9Zm14.58-14.58a5.29,5.29,0,0,1-5.21-5.21,5.21,5.21,0,1,1,10.41,0A5.29,5.29,0,0,1,958.87,483.32Zm7.71-19a5.29,5.29,0,0,1-5.21-5.21,5.16,5.16,0,0,1,5.21-5.21,5.29,5.29,0,0,1,5.21,5.21A5.44,5.44,0,0,1,966.57,464.36Zm.83-82.69a5.21,5.21,0,1,1,5.21-5.21A5.16,5.16,0,0,1,967.41,381.67Zm0,20.83a5.21,5.21,0,1,1,5.21-5.21A5.16,5.16,0,0,1,967.41,402.5Zm0,20.83a5.21,5.21,0,1,1,5.21-5.21A5.16,5.16,0,0,1,967.41,423.33Zm0,20.83a5.21,5.21,0,1,1,5.21-5.21A5.16,5.16,0,0,1,967.41,444.16Z"/><path class="cls-8" d="M1057,381.67a5.21,5.21,0,1,1,5.21-5.21A5.16,5.16,0,0,1,1057,381.67Zm0,20.83a5.21,5.21,0,1,1,5.21-5.21A5.16,5.16,0,0,1,1057,402.5Zm0,20.83a5.21,5.21,0,1,1,5.21-5.21A5.16,5.16,0,0,1,1057,423.33Zm0,20.83a5.21,5.21,0,1,1,5.21-5.21A5.16,5.16,0,0,1,1057,444.16Zm0,20.83a5.21,5.21,0,1,1,5.21-5.21A5.16,5.16,0,0,1,1057,465Zm0,20.83a5.21,5.21,0,1,1,5.21-5.21A5.16,5.16,0,0,1,1057,485.82Zm0,20.83a5.21,5.21,0,1,1,5.21-5.21A5.16,5.16,0,0,1,1057,506.65Z"/><path class="cls-8" d="M1150.7,394.38a5.29,5.29,0,0,1-5.21-5.21,5.21,5.21,0,1,1,10.42,0A5.29,5.29,0,0,1,1150.7,394.38Zm0,22.29a5.21,5.21,0,1,1,5.21-5.21A5.16,5.16,0,0,1,1150.7,416.66Zm0,22.5a5.21,5.21,0,1,1,5.21-5.21A5.16,5.16,0,0,1,1150.7,439.16Zm0,22.5a5.21,5.21,0,1,1,5.21-5.21A5.16,5.16,0,0,1,1150.7,461.66Zm0,22.5a5.21,5.21,0,1,1,5.21-5.21A5.16,5.16,0,0,1,1150.7,484.15Zm0,22.5a5.21,5.21,0,1,1,5.21-5.21A5.16,5.16,0,0,1,1150.7,506.65Zm14.17-98.73a5.21,5.21,0,1,1,0-10.42,5.21,5.21,0,0,1,0,10.42Zm15.21,14.37a5.21,5.21,0,1,1,5.21-5.21A5.16,5.16,0,0,1,1180.07,422.29Zm15,14.37a5.21,5.21,0,1,1,5.21-5.21A5.16,5.16,0,0,1,1195.07,436.66Zm15,14.37a5.16,5.16,0,0,1-5.21-5.21,5.21,5.21,0,1,1,10.41,0A5.16,5.16,0,0,1,1210.06,451Zm15.21,14.37a5.16,5.16,0,0,1-5.21-5.21,5.29,5.29,0,0,1,5.21-5.21,5.44,5.44,0,0,1,5.21,5.21A5.29,5.29,0,0,1,1225.27,465.4Zm15,14.58a5.29,5.29,0,0,1-5.21-5.21,5.21,5.21,0,1,1,10.41,0A5.29,5.29,0,0,1,1240.27,480Zm14.58-98.32a5.21,5.21,0,1,1,5.21-5.21A5.16,5.16,0,0,1,1254.85,381.67Zm0,22.29a5.16,5.16,0,0,1-5.21-5.21,5.21,5.21,0,0,1,10.42,0A5.16,5.16,0,0,1,1254.85,404Zm0,22.5a5.16,5.16,0,0,1-5.21-5.21,5.21,5.21,0,0,1,10.42,0A5.16,5.16,0,0,1,1254.85,426.45Zm0,22.5a5.16,5.16,0,0,1-5.21-5.21,5.21,5.21,0,0,1,10.42,0A5.16,5.16,0,0,1,1254.85,448.95Zm0,22.5a5.16,5.16,0,0,1-5.21-5.21,5.21,5.21,0,0,1,10.42,0A5.16,5.16,0,0,1,1254.85,471.45Zm0,22.5a5.16,5.16,0,0,1-5.21-5.21,5.21,5.21,0,0,1,10.42,0A5.16,5.16,0,0,1,1254.85,493.94Z"/><path class="cls-6" d="M629.11,282.84v48h-6.85V315.39h-27.4V330.8H588v-48h6.85v25.69h27.4V282.84Z"/><path class="cls-6" d="M670.21,330.8a24,24,0,1,1,24-24A24,24,0,0,1,670.21,330.8Zm-17.13-24a17.13,17.13,0,1,0,17.13-17.13A17.13,17.13,0,0,0,653.08,306.82Z"/><path class="cls-6" d="M721.66,330.8h-.75l-18.36-48h7.33l11.37,29.8,11.44-29.8,11.37,29.8,11.44-29.8h7.33l-18.36,48h-.75l-11-28.77Z"/><path class="cls-6" d="M817.77,330.8H817l-18.36-48H806l11.37,29.8,11.44-29.8,11.37,29.8,11.44-29.8h7.33l-18.36,48h-.75L828.8,302Z"/><path class="cls-6" d="M888.47,330.8a24,24,0,1,1,24-24A24,24,0,0,1,888.47,330.8Zm-17.13-24a17.13,17.13,0,1,0,17.13-17.13A17.13,17.13,0,0,0,871.34,306.82Z"/><path class="cls-6" d="M948.75,330.8a20.53,20.53,0,0,1-20.55-20.55v-27.4H935v27.4a13.7,13.7,0,0,0,27.4,0v-27.4h6.85v27.4A20.53,20.53,0,0,1,948.75,330.8Z"/><path class="cls-6" d="M998.76,323.95h27.4v6.85H991.91v-48h6.85Z"/><path class="cls-6" d="M1045.34,330.8v-48h17.13a24,24,0,1,1,0,48Zm17.13-6.85a17.13,17.13,0,1,0,0-34.26h-10.28v34.26Z"/><path class="cls-6" d="M1168.65,282.84v6.85h-17.13V330.8h-6.85V289.69h-17.13v-6.85Z"/><path class="cls-6" d="M1194.68,289.69v18.84h20.55v6.85h-20.55v8.56h27.4v6.85h-34.26v-48h34.26v6.85Z"/><path class="cls-6" d="M1276.89,317.1l5.41,4.18a24,24,0,1,1,0-28.91l-5.41,4.18a17.13,17.13,0,1,0,0,20.55Z"/><path class="cls-6" d="M1341.22,282.84v48h-6.85V315.39H1307V330.8h-6.85v-48H1307v25.69h27.4V282.84Z"/><g class="cls-3"><path class="cls-4" d="M498.84,688.74l-5.42,68.95H462.18l-31.24-10.42h31.24L483,726.44,487,676Zm49.78,9-10,10.83-31.24-10.42,20.83-20.83,17.5-19ZM603,601.46l11.87,156.22H583.62l-31.24-10.42h31.24l20.83-20.83-9.79-127.69Z"/><path class="cls-4" d="M728.8,632.7a47,47,0,0,0-45.2,45.2,47,47,0,0,1-5.42-50.62,47,47,0,0,1,50.62,5.42Zm79.78,46.87A78.32,78.32,0,0,1,705,753.52c-5-1.67-24.79-8.33-30.83-10.42a76.74,76.74,0,0,0,25,4.17,77.58,77.58,0,0,0,55.2-22.91c3.54-3.54,17.5-17.29,20.83-20.83a78,78,0,0,0,22.91-55.2c0-2.92-.21-5.62-.42-8.54A78,78,0,0,1,808.57,679.57Z"/><path class="cls-4" d="M995,601.46l-85.4,156.22h-9.37L869,747.27h9.37l20.83-20.83,72.49-132.69Z"/><path class="cls-4" d="M1055.39,601.46V757.68h-31.25l-31.24-10.42h31.24L1045,726.44V597.92Z"/><path class="cls-4" d="M1232.44,726.44v31.25H1117.88l-31.25-10.42H1201.2L1222,726.44V722.9Zm0-125V632.7h-83.32v15.62h-10.42v-26h62.49L1222,601.46v-3.54Zm-20.83,78.11v15.62h-26l15.62-15.62V676Z"/><path class="cls-4" d="M1282.85,744.77c-.21,0-.42-.21-.62-.21C1282.43,744.56,1282.64,744.77,1282.85,744.77Zm93.32-34a46.94,46.94,0,0,1-46.87,46.87,43.22,43.22,0,0,1-14.79-2.5c-5.42-1.67-26.66-8.75-31.45-10.41h-.21a45.67,45.67,0,0,0,15.21,2.5,46.6,46.6,0,0,0,33.12-13.75L1352,712.69a46.61,46.61,0,0,0,13.75-31.45A47.3,47.3,0,0,1,1376.17,710.81Zm-71.45-87.07a16.35,16.35,0,0,0,7.5,7.5A16.35,16.35,0,0,0,1304.72,623.75Zm7.5,70a16.35,16.35,0,0,0-7.5-7.5A16.35,16.35,0,0,0,1312.22,693.73Zm62.7-56L1351.59,646a47.91,47.91,0,0,0-25-12.71l17.08-6,15.21-15.21A46.34,46.34,0,0,1,1374.92,637.7Z"/><path class="cls-4" d="M1439.07,637.91h-12.91l-6,6L1403,638.12l15.62-15.62a8.56,8.56,0,0,1,2.29-.21A18.23,18.23,0,0,1,1439.07,637.91Zm-26,70.41-7.71-2.71h10.42Zm54.78,18.12v31.25h-31.24l-31.25-10.42h31.25l20.83-20.83V722.9Zm34-75.4a49.23,49.23,0,0,1-34,46.87V716H1457.4V695.19H1447l10.42-10.42V673.95s16-15.83,19.58-19.37a49.92,49.92,0,0,0,14.37-34A49.68,49.68,0,0,1,1501.77,651Z"/></g><path class="cls-5" d="M583.83,747.27H552.38l-6.67-88.94-17.5,19-20.83,20.83L487,676l-4,50.41-20.83,20.83H430.94L443,591l20.83-20.83h7.92l55.62,60.2L563.62,591l20.83-20.83h8.12l11.87,156.22Zm-5.83-26h21L587.79,575.42h-1l-58.53,63.32-58.74-63.32h-.83L457.39,721.23h20.83l7.5-97.48,42.49,45.83,42.28-45.83Z"/><path class="cls-5" d="M754.42,724.35A78.06,78.06,0,1,1,644.23,613.75c3.33-3.54,17.29-17.29,20.83-20.83a77.28,77.28,0,0,1,55-22.7,78.06,78.06,0,0,1,55.2,133.31C771.91,707.07,758,720.81,754.42,724.35ZM720,575.42a72.9,72.9,0,1,0,72.9,72.9A73,73,0,0,0,720,575.42Zm52.07,72.9A52.07,52.07,0,1,1,720,596.25,52.09,52.09,0,0,1,772.12,648.33Zm-31,41.87a47.44,47.44,0,0,0,5-21,46.94,46.94,0,0,0-46.87-46.87,47.44,47.44,0,0,0-21,5,47.43,47.43,0,0,0-5,21A46.94,46.94,0,0,0,720,695.19,47.44,47.44,0,0,0,741.09,690.19Z"/><path class="cls-5" d="M899.18,726.44l-20.83,20.83H869L783.57,591l20.83-20.83H840l49.78,91L928.13,591,949,570.21h35.62Zm52.91-151L894.6,680.82l-57.7-105.4H813.15l79.78,145.81h3.12l79.78-145.81Z"/><path class="cls-5" d="M1045,726.44l-20.83,20.83H992.91V591l20.83-20.83H1045Zm-5.21-151h-20.83V721.23h20.83Z"/><path class="cls-5" d="M1138.71,622.29v26h62.49v31.25l-15.62,15.62H1222v31.24l-20.83,20.83H1086.64V591l20.83-20.83H1222v31.24l-20.83,20.83Zm78.11-26V575.42H1112.67V721.23h104.15V700.4H1133.5v-26H1196V653.53H1133.5V596.25Z"/><path class="cls-5" d="M1331.17,733.52a46.81,46.81,0,0,1-78.74-22.5l20.83-20.83,17.08-6a46.85,46.85,0,0,1-25.41-79.36L1285.76,584a46.81,46.81,0,0,1,78.74,22.5l-20.83,20.83-17.08,6A46.84,46.84,0,0,1,1352,712.69Zm7.29-123.31,19.79-7.08a41.73,41.73,0,0,0-81,14,41.51,41.51,0,0,0,41.66,41.66,20.83,20.83,0,1,1,0,41.66,20.53,20.53,0,0,1-19.58-14l-19.79,7.08a41.71,41.71,0,1,0,39.37-55.62,20.83,20.83,0,1,1,19.58-27.7Zm-33.74,13.54a16.35,16.35,0,0,0,7.5,7.5A16.35,16.35,0,0,0,1304.72,623.75Zm7.5,70a16.35,16.35,0,0,0-7.5-7.5A16.35,16.35,0,0,0,1312.22,693.73Z"/><path class="cls-5" d="M1491.35,619.79A49.84,49.84,0,0,1,1477,654.57c-3.54,3.54-19.58,19.37-19.58,19.37v10.83L1447,695.19h10.42v31.24l-20.83,20.83h-31.25V716l10.42-10.42h-10.42V658.74l20.83-20.83h12.91a18.23,18.23,0,0,0-18.12-15.62,8.56,8.56,0,0,0-2.29.21L1403,638.12l-29-12.92A47.28,47.28,0,0,1,1386,605.62l21-21a49.49,49.49,0,0,1,84.36,35.2Zm-90-18.12,19.16,8.33a23.44,23.44,0,0,1,44.78,9.58,23.51,23.51,0,0,1-23.54,23.54h-10.42v36.45h20.83V662.7a44.26,44.26,0,1,0-50.82-61Zm50.82,119.56V700.4h-20.83v20.83Z"/><path class="cls-6" d="M463.85,570.21h7.92l56.45,61,56.24-61h8.12l11.87,156.22H573.2L566.33,636l-38.12,41.24L490.09,636,483,726.44H451.77Z"/><path class="cls-6" d="M720,726.44a78.11,78.11,0,1,1,78.11-78.11A78.14,78.14,0,0,1,720,726.44Zm-46.87-78.11A46.87,46.87,0,1,0,720,601.46,46.94,46.94,0,0,0,673.18,648.33Z"/><path class="cls-6" d="M899.18,726.44h-9.37L804.4,570.21H840L894.6,670,949,570.21h35.62Z"/><path class="cls-6" d="M1045,726.44h-31.24V570.21H1045Z"/><path class="cls-6" d="M1107.47,570.21H1222v31.24h-83.32v46.87h62.49v31.25h-62.49v15.62H1222v31.24H1107.47Z"/><path class="cls-6" d="M1365.75,679.57a46.85,46.85,0,0,1-92.48,10.62l30-10.62a15.62,15.62,0,1,0,15.62-15.62,46.87,46.87,0,1,1,45.62-57.49l-30,10.62a15.62,15.62,0,1,0-15.62,15.62A46.94,46.94,0,0,1,1365.75,679.57Z"/><path class="cls-6" d="M1491.35,619.79a49.23,49.23,0,0,1-34,46.87v18.12h-31.25V637.91h15.62a18.23,18.23,0,1,0-17.91-20.62l-29-12.92a49.43,49.43,0,0,1,96.44,15.41Zm-65.2,75.4h31.25v31.24h-31.25Z"/><path class="cls-7" d="M570.5,623.75l-42.28,45.83-42.49-45.83-7.5,97.48H457.39l11.25-145.81h.83l58.74,63.32,58.53-63.32h1L599,721.23H578Z"/><path class="cls-7" d="M720,721.23a72.9,72.9,0,1,1,72.9-72.9A73,73,0,0,1,720,721.23ZM668,648.33A52.07,52.07,0,1,0,720,596.25,52.09,52.09,0,0,0,668,648.33Z"/><path class="cls-7" d="M975.83,575.42,896.05,721.23h-3.12L813.15,575.42H836.9l57.7,105.4,57.49-105.4Z"/><path class="cls-7" d="M1039.77,721.23h-20.83V575.42h20.83Z"/><path class="cls-7" d="M1133.5,596.25v57.28H1196v20.83H1133.5v26h83.32v20.83H1112.67V575.42h104.15v20.83Z"/><path class="cls-7" d="M1298.05,617.08a20.89,20.89,0,0,0,20.83,20.83,41.66,41.66,0,1,1-39.37,55.62l19.79-7.08a20.53,20.53,0,0,0,19.58,14,20.83,20.83,0,1,0,0-41.66,41.66,41.66,0,0,1,0-83.32,42,42,0,0,1,39.37,27.7l-19.79,7.08a20.78,20.78,0,0,0-40.41,6.87Z"/><path class="cls-7" d="M1486.14,619.58a44.42,44.42,0,0,1-34,43.12v16.87h-20.83V643.12h10.42a23.43,23.43,0,1,0,0-46.87A23.24,23.24,0,0,0,1420.53,610l-19.16-8.33a44.31,44.31,0,0,1,84.78,17.91Zm-54.78,101.65V700.4h20.83v20.83Z"/><path class="cls-8" d="M468.64,716a5.21,5.21,0,1,1,5.21-5.21A5.16,5.16,0,0,1,468.64,716Zm1.67-21.87a5.16,5.16,0,0,1-5.21-5.21,5.21,5.21,0,0,1,10.42,0A5.16,5.16,0,0,1,470.31,694.15ZM472,672.49a5.29,5.29,0,0,1-5.21-5.21,5.21,5.21,0,0,1,10.41,0A5.29,5.29,0,0,1,472,672.49Zm1.67-21.87a5.21,5.21,0,1,1,5.21-5.21A5.16,5.16,0,0,1,473.64,650.62Zm1.67-21.87a5.21,5.21,0,1,1,5.21-5.21A5.16,5.16,0,0,1,475.3,628.75Zm1.87-23.12a5.16,5.16,0,0,1-5.21-5.21,5.29,5.29,0,0,1,5.21-5.21,5.44,5.44,0,0,1,5.21,5.21A5.29,5.29,0,0,1,477.18,605.62Zm13.33,13.12a5.21,5.21,0,1,1,5.21-5.21A5.16,5.16,0,0,1,490.51,618.75ZM503,632.29a5.21,5.21,0,1,1,5.21-5.21A5.16,5.16,0,0,1,503,632.29Zm12.5,13.54a5.29,5.29,0,0,1-5.21-5.21,5.44,5.44,0,0,1,5.21-5.21,5.29,5.29,0,0,1,5.21,5.21A5.16,5.16,0,0,1,515.51,645.83Zm12.71,13.75a5.21,5.21,0,1,1,5.21-5.21A5.16,5.16,0,0,1,528.21,659.57Zm12.5-24.16a5.29,5.29,0,0,1,5.21,5.21,5.21,5.21,0,1,1-10.41,0A5.29,5.29,0,0,1,540.71,635.41Zm12.5-13.54a5.21,5.21,0,1,1-5.21,5.21A5.16,5.16,0,0,1,553.21,621.87Zm12.5-13.54a5.21,5.21,0,0,1,0,10.42,5.21,5.21,0,0,1,0-10.42Zm13.54-13.12a5.29,5.29,0,0,1,5.21,5.21,5.21,5.21,0,0,1-10.41,0A5.29,5.29,0,0,1,579.25,595.21Zm1.88,23.12a5.21,5.21,0,1,1-5.21,5.21A5.16,5.16,0,0,1,581.12,618.33Zm1.67,21.87a5.21,5.21,0,1,1,0,10.41,5.21,5.21,0,0,1,0-10.41Zm1.67,21.87a5.29,5.29,0,0,1,5.21,5.21,5.44,5.44,0,0,1-5.21,5.21,5.29,5.29,0,0,1-5.21-5.21A5.16,5.16,0,0,1,584.45,662.07Zm1.46,21.66a5.29,5.29,0,0,1,5.21,5.21,5.16,5.16,0,0,1-5.21,5.21,5.29,5.29,0,0,1-5.21-5.21A5.44,5.44,0,0,1,585.91,683.74Zm1.67,21.87a5.21,5.21,0,1,1,0,10.42,5.21,5.21,0,1,1,0-10.42Z"/><path class="cls-8" d="M658.18,662.49a5.29,5.29,0,0,1-5.21-5.21,5.21,5.21,0,1,1,10.42,0A5.29,5.29,0,0,1,658.18,662.49Zm.42-20.83a5.21,5.21,0,0,1,0-10.42,5.21,5.21,0,1,1,0,10.42Zm5.83,40.62a5.21,5.21,0,1,1,0-10.41,5.21,5.21,0,1,1,0,10.41Zm1.46-60a5.29,5.29,0,0,1-5.21-5.21,5.21,5.21,0,1,1,10.42,0A5.29,5.29,0,0,1,665.89,622.29Zm11,76.45a5.21,5.21,0,1,1,0-10.42,5.21,5.21,0,1,1,0,10.42ZM679,606.25a5.29,5.29,0,0,1-5.21-5.21,5.44,5.44,0,0,1,5.21-5.21,5.29,5.29,0,0,1,5.21,5.21A5.16,5.16,0,0,1,679,606.25ZM694,710.4a5.21,5.21,0,1,1,5.21-5.21A5.16,5.16,0,0,1,694,710.4Zm2.92-115a5.16,5.16,0,0,1-5.21-5.21,5.29,5.29,0,0,1,5.21-5.21,5.44,5.44,0,0,1,5.21,5.21A5.29,5.29,0,0,1,696.93,595.42Zm17.29,120.4a5.21,5.21,0,1,1,0-10.42,5.21,5.21,0,0,1,0,10.42ZM717.13,591a5.16,5.16,0,0,1-5.21-5.21,5.29,5.29,0,0,1,5.21-5.21,5.44,5.44,0,0,1,5.21,5.21A5.29,5.29,0,0,1,717.13,591Zm17.5,123.31a5.21,5.21,0,0,1,0-10.42,5.21,5.21,0,0,1,0,10.42Zm2.92-120.81a5.21,5.21,0,1,1,5.21-5.21A5.16,5.16,0,0,1,737.54,593.54Zm16.25,112.69a5.29,5.29,0,0,1-5.21-5.21A5.21,5.21,0,0,1,759,701,5.29,5.29,0,0,1,753.79,706.23Zm2.5-103.52a5.29,5.29,0,0,1-5.21-5.21,5.21,5.21,0,1,1,10.42,0A5.29,5.29,0,0,1,756.29,602.71Zm12.91,89.36a5.16,5.16,0,0,1-5.21-5.21,5.21,5.21,0,0,1,10.42,0A5.16,5.16,0,0,1,769.21,692.07Zm1.67-74.78a5.21,5.21,0,0,1,0-10.42,5.21,5.21,0,1,1,0,10.42ZM779,673.95a5.29,5.29,0,0,1-5.21-5.21,5.44,5.44,0,0,1,5.21-5.21,5.29,5.29,0,0,1,5.21,5.21A5.16,5.16,0,0,1,779,673.95Zm1-38.12a5.16,5.16,0,0,1-5.21-5.21,5.21,5.21,0,1,1,10.41,0A5.16,5.16,0,0,1,780,635.83Zm2.5,17.71a5.21,5.21,0,1,1,5.21-5.21A5.16,5.16,0,0,1,782.54,653.53Z"/><path class="cls-8" d="M830.65,580.63a5.21,5.21,0,1,1,0,10.41,5.21,5.21,0,1,1,0-10.41Zm10.42,19a5.21,5.21,0,1,1,0,10.41,5.21,5.21,0,1,1,0-10.41Zm10.62,19a5.44,5.44,0,0,1,5.21,5.21,5.29,5.29,0,0,1-5.21,5.21,5.16,5.16,0,0,1-5.21-5.21A5.29,5.29,0,0,1,851.69,618.54ZM862.1,637.7a5.29,5.29,0,0,1,5.21,5.21,5.44,5.44,0,0,1-5.21,5.21,5.29,5.29,0,0,1-5.21-5.21A5.16,5.16,0,0,1,862.1,637.7Zm10.41,19a5.21,5.21,0,1,1,0,10.42,5.21,5.21,0,0,1,0-10.42Zm10.42,19a5.21,5.21,0,1,1,0,10.42,5.21,5.21,0,0,1,0-10.42ZM894.6,705a5.21,5.21,0,0,1,0-10.42,5.21,5.21,0,1,1,0,10.42Zm11.67-19a5.21,5.21,0,1,1,5.21-5.21A5.16,5.16,0,0,1,906.26,686Zm10.41-19a5.21,5.21,0,1,1,5.21-5.21A5.16,5.16,0,0,1,916.68,667.07Zm10.42-19a5.29,5.29,0,0,1-5.21-5.21,5.21,5.21,0,0,1,10.42,0A5.29,5.29,0,0,1,927.09,648.12ZM937.51,629a5.16,5.16,0,0,1-5.21-5.21,5.21,5.21,0,0,1,10.42,0A5.16,5.16,0,0,1,937.51,629Zm10.41-19a5.21,5.21,0,1,1,5.21-5.21A5.16,5.16,0,0,1,947.92,610Zm10.42-19a5.21,5.21,0,1,1,5.21-5.21A5.16,5.16,0,0,1,958.33,591Z"/><path class="cls-8" d="M1029.36,591a5.21,5.21,0,1,1,5.21-5.21A5.16,5.16,0,0,1,1029.36,591Zm0,20.83a5.21,5.21,0,1,1,5.21-5.21A5.16,5.16,0,0,1,1029.36,611.87Zm0,20.83a5.21,5.21,0,1,1,5.21-5.21A5.16,5.16,0,0,1,1029.36,632.7Zm0,20.83a5.21,5.21,0,1,1,5.21-5.21A5.16,5.16,0,0,1,1029.36,653.53Zm0,20.83a5.21,5.21,0,1,1,5.21-5.21A5.16,5.16,0,0,1,1029.36,674.36Zm0,20.83a5.21,5.21,0,1,1,5.21-5.21A5.16,5.16,0,0,1,1029.36,695.19Zm0,20.83a5.21,5.21,0,1,1,5.21-5.21A5.16,5.16,0,0,1,1029.36,716Z"/><path class="cls-8" d="M1123.09,591a5.21,5.21,0,1,1,5.21-5.21A5.16,5.16,0,0,1,1123.09,591Zm0,20.83a5.21,5.21,0,1,1,5.21-5.21A5.16,5.16,0,0,1,1123.09,611.87Zm0,20.83a5.21,5.21,0,1,1,5.21-5.21A5.16,5.16,0,0,1,1123.09,632.7Zm0,20.83a5.21,5.21,0,1,1,5.21-5.21A5.16,5.16,0,0,1,1123.09,653.53Zm0,20.83a5.21,5.21,0,1,1,5.21-5.21A5.16,5.16,0,0,1,1123.09,674.36Zm0,20.83a5.21,5.21,0,1,1,5.21-5.21A5.16,5.16,0,0,1,1123.09,695.19Zm0,20.83a5.21,5.21,0,1,1,5.21-5.21A5.16,5.16,0,0,1,1123.09,716Zm20.83-125a5.21,5.21,0,1,1,5.21-5.21A5.16,5.16,0,0,1,1143.92,591Zm0,78.11a5.21,5.21,0,1,1,5.21-5.21A5.16,5.16,0,0,1,1143.92,669.16Zm0,46.87a5.21,5.21,0,1,1,5.21-5.21A5.16,5.16,0,0,1,1143.92,716Zm20.83-125a5.21,5.21,0,1,1,5.21-5.21A5.16,5.16,0,0,1,1164.75,591Zm0,78.11a5.21,5.21,0,1,1,5.21-5.21A5.16,5.16,0,0,1,1164.75,669.16Zm0,46.87a5.21,5.21,0,1,1,5.21-5.21A5.16,5.16,0,0,1,1164.75,716Zm20.83-125a5.21,5.21,0,1,1,5.21-5.21A5.16,5.16,0,0,1,1185.58,591Zm0,78.11a5.21,5.21,0,1,1,5.21-5.21A5.16,5.16,0,0,1,1185.58,669.16Zm0,46.87a5.21,5.21,0,1,1,5.21-5.21A5.16,5.16,0,0,1,1185.58,716Zm20.83-125a5.21,5.21,0,1,1,5.21-5.21A5.16,5.16,0,0,1,1206.41,591Zm0,125a5.21,5.21,0,1,1,5.21-5.21A5.16,5.16,0,0,1,1206.41,716Z"/><path class="cls-8" d="M1287.64,622.29a5.21,5.21,0,1,1,5.21-5.21A5.16,5.16,0,0,1,1287.64,622.29Zm5.62-17.91a5.21,5.21,0,1,1,0-10.41,5.21,5.21,0,0,1,0,10.41Zm.42,36.45a5.29,5.29,0,0,1-5.21-5.21,5.44,5.44,0,0,1,5.21-5.21,5.29,5.29,0,0,1,5.21,5.21A5.16,5.16,0,0,1,1293.68,640.83Zm.42,63.53a5.29,5.29,0,0,1-5.21-5.21,5.16,5.16,0,0,1,5.21-5.21,5.29,5.29,0,0,1,5.21,5.21A5.44,5.44,0,0,1,1294.1,704.36Zm14.37-111.44a5.29,5.29,0,0,1-5.21-5.21,5.21,5.21,0,1,1,10.42,0A5.29,5.29,0,0,1,1308.47,592.92Zm.83,59.16a5.21,5.21,0,1,1,5.21-5.21A5.16,5.16,0,0,1,1309.3,652.07Zm1.25,62.91a5.21,5.21,0,1,1,5.21-5.21A5.16,5.16,0,0,1,1310.55,715Zm17.08-122.69a5.21,5.21,0,1,1,5.21-5.21A5.16,5.16,0,0,1,1327.63,592.29Zm.62,62.7a5.21,5.21,0,0,1,0-10.42,5.21,5.21,0,1,1,0,10.42Zm.63,59.36a5.21,5.21,0,1,1,5.21-5.21A5.16,5.16,0,0,1,1328.88,714.36Zm14.58-111.44a5.21,5.21,0,1,1,5.21-5.21A5.16,5.16,0,0,1,1343.46,602.92Zm.83,63.53a5.16,5.16,0,0,1-5.21-5.21,5.21,5.21,0,0,1,10.42,0A5.16,5.16,0,0,1,1344.3,666.45Zm0,36.45a5.21,5.21,0,1,1,5.21-5.21A5.16,5.16,0,0,1,1344.3,702.9Zm5.83-18.12a5.21,5.21,0,1,1,5.21-5.21A5.16,5.16,0,0,1,1350.13,684.78Z"/><path class="cls-8" d="M1416.57,602.29a5.21,5.21,0,0,1,0-10.41,5.21,5.21,0,1,1,0,10.41Zm19.16-10.62a5.21,5.21,0,1,1,0-10.42,5.21,5.21,0,0,1,0,10.42Zm6,66.86a5.21,5.21,0,0,1,0-10.42,5.21,5.21,0,1,1,0,10.42Zm0,15.83a5.21,5.21,0,0,1,0-10.42,5.21,5.21,0,1,1,0,10.42Zm0,41.66a5.21,5.21,0,0,1,0-10.42,5.21,5.21,0,1,1,0,10.42Zm15.62-121.23a5.21,5.21,0,1,1,5.21-5.21A5.16,5.16,0,0,1,1457.4,594.79Zm5.83,56.45a5.21,5.21,0,1,1,0-10.42,5.21,5.21,0,0,1,0,10.42Zm9.79-40a5.21,5.21,0,1,1,5.21-5.21A5.16,5.16,0,0,1,1473,611.25Zm1.67,21.87a5.29,5.29,0,0,1-5.21-5.21,5.16,5.16,0,0,1,5.21-5.21,5.29,5.29,0,0,1,5.21,5.21A5.44,5.44,0,0,1,1474.69,633.12Z"/><path class="cls-2" d="M821.42,172.21c1-5.57,8.35-8.91,14.29-8.91,4.24,0,7.83,1.7,7.83,5.66,0,3.63-4.57,7.59-13.63,7.59a38.14,38.14,0,0,1-5.42-.38c2.92,6.27,14.1,13.63,14.1,21.79,0,5.94-5.19,8.11-9.2,8.11-14.34,0-23.06-15.14-23-15.14s.09-.52.42-.52.75.33,1.65,1.56c0,0,.47,0,.8,0l.8.75c5,4.76,12.64,7.07,18.35,7.07,3.25,0,6-1.79,6-5.09,0-5.52-11.08-11.6-12.92-19.1-8.44-2-12.64-7-12.64-11.37,0-4.06,3.68-7.55,11-7.55a14.08,14.08,0,0,1,5.42,1.08l0,.24a17.13,17.13,0,0,0-4.2-.52c-6.6,0-9.76,2.88-9.76,6.13S814.72,170.89,821.42,172.21Zm13.06-7.26c-4.1,0-10,2.92-10.66,7.64q1.42.14,3,.14c7.4,0,11.65-2.88,11.65-5C838.45,165.8,836.75,164.95,834.48,164.95Z"/><path class="cls-2" d="M844.72,198.44c0,1.84.33,2.59.9,2.59,1.42,0,4.1-5,5.28-8.63a47.6,47.6,0,0,1,.94-7.36c.42.24,2.92.61,2.92,1.46,0,1.42-.85,6.41-.85,10.14,0,2.88.47,4.1,1.13,4.1s1.6-1.27,2.59-3.44c1.37-3,2.36-7.26,3.16-9.72.75-2.22,1.41-4,2-4,.85,0,1.46-.52,1.84-.52s.42,2.12.42,4.06c0,4.15,0,6.23,0,7.45,1.51-3.3,3.25-8.82,6-11.41a.63.63,0,0,1,.38-.14c.52,0,2.17,1.08,2.17,1.65a.42.42,0,0,1,0,.24,27.08,27.08,0,0,0-1.65,9.67c0,2.5.61,5,1.6,5,.57,0,1.27-.8,2-2.88a.49.49,0,0,1,.19,0,.13.13,0,0,1,.14.14c0,1.93-1.27,4.81-3.16,4.81-4.1,0-4.39-8.07-4.39-10.42-2.26,2.45-3.4,8.91-4.43,12,0,.33-.33.47-.71.47a3.48,3.48,0,0,1-2.22-1.27c0-.09.33-3.16.61-7,.14-2,.47-5.61.47-7.88,0-.42,0-.66-.09-.66-.52,0-1.37,6.46-3.4,11.23-1.42,3.44-3,5-4.29,5-1.79,0-3.21-2.92-3.35-8.4-1.37,3.73-3.44,9-6.18,9s-3.4-3.68-3.4-7.88a47.34,47.34,0,0,1,1.51-11.41s.19-.61.57-.61a12.12,12.12,0,0,0,2.88-.33c.57,0,.57.38.57.38A51.68,51.68,0,0,0,844.72,198.44Z"/><path class="cls-2" d="M910.18,171.88c0,5.42-3.49,9.57-4.48,9.57-.09,0-.14,0-.14-.09,0-.28.61-1,.61-1.08s-.38-.42-.38-.75c0-.85,1-2.45,1-6.51,0-3.87-2.17-6.6-3.4-6.6-3.21,0-3.4,5.61-3.4,11.41,0,7.69-.09,15.28-2.12,21,5.52,3.49,10.14,7.83,16.7,7.83a14.81,14.81,0,0,0,5.71-.9,2.52,2.52,0,0,1,.61-.14c.09,0,.14,0,.14.09,0,.52-1,.66-1.23,1.27-.9,3.21-7.22,4.15-10,4.15-5.71,0-10.42-3.49-15-7-2.31,2.59-5.66,4.15-10.56,4.15-8.06,0-12.36-3.58-12.36-7.17,0-3.4,4-6.79,12.45-6.79A22.13,22.13,0,0,1,894,196.6c3.82-12.26-.24-32.59,10.19-32.59C908.43,164,910.18,167.83,910.18,171.88Zm-36.46,28.3c0,2.55,3.4,5.57,9,5.57a10.31,10.31,0,0,0,8.77-4.1c-3.73-2.64-7.5-4.9-11.89-4.9C875.51,196.74,873.72,198.34,873.72,200.18Z"/><path class="cls-2" d="M910.37,184.38a12.15,12.15,0,0,0,2.88-.33c.57,0,.57.38.57.38-1.23,6.84-1.89,9.57-1.89,14.29,0,1.6.42,2.17,1,2.17,1,0,2.55-1.7,3.07-2.92a.63.63,0,0,1,.42-.28c.14,0,.24.09.24.28v.09c-.52,2.69-2.5,5.14-4.76,5.14-2.64,0-3.44-3.44-3.44-7.4A54.38,54.38,0,0,1,909.8,185S910,184.38,910.37,184.38Zm5.85-10.56c0,1.79-1.37,4.06-3,4.06a2.14,2.14,0,0,1-2.17-2.41c0-1.75,1.23-3.82,3.11-3.82A1.93,1.93,0,0,1,916.21,173.82Z"/><path class="cls-2" d="M930,189.66c.24.33,1,.19,1,.61a.43.43,0,0,1-.28.42c-.75.38-4.48.66-6.84.66-.47,0-.85,0-1.18,0s-.42.42-.42.42c2.59,4.2,4,12.26,4,19.48,0,7.92-1.65,14.9-5,14.9-3.58,0-4.67-3.58-4.67-8.73,0-7.45,2.26-18.25,2.45-25.94a.63.63,0,0,0-.71-.61c-.66,0-3.44-2.12-3.44-2.74,0-.14.09-.28.47-.38a35.39,35.39,0,0,1,3.73-.33c.28,0,.42-.14.42-.38,0,0,.42-1,1.75-22.64,0-.24,0-.47.09-.47s.38,0,.52.14c.38.57,1.75,2.55,2.22,3.07a1.57,1.57,0,0,1,.42,1.08,2.13,2.13,0,0,1,0,.52c-.9,6.37-1.7,12.64-2.41,18.44l4.48-.24C927.77,186.93,929.09,188.34,930,189.66Zm-10,33.86c.94,0,2.69-9.48,2.69-17.83,0-4.1-.42-7.92-1.6-10.14-1.18,10.94-1.84,19.34-1.84,22.26C919.23,221.83,919.56,223.53,920,223.53Z"/><path class="cls-2" d="M940.83,195.84a8.48,8.48,0,0,0-.42-2.55s0-.28.57-.28c1.75,0,2.12,1.93,2.12,3.58,0,3.35-2.59,6.65-6.08,6.65-4.86,0-6.89-4.29-6.89-9,0-5.71,3-12,7.55-12,2.12,0,3.3,1.56,3.3,3.73,0,2.92-2.17,6.89-7.12,9.72.28,3.91,1.7,5.42,3.25,5.42C938.95,201.12,940.83,198.91,940.83,195.84ZM937.53,185c-2.08,0-3.63,4.53-3.73,8.73,1.89-1.27,4.43-5.52,4.43-7.83C938.24,185.47,938,185,937.53,185Z"/><path class="cls-2" d="M975.88,204.76c-.61,0-.71-.47-.71-.8.38-5.61.57-11.41.66-16.65a8,8,0,0,1-5.14-3.44s-1.13-1.56-1.37-1.75a.52.52,0,0,1-.28-.47c0-.09.14-.24.14-.38v-.09a2,2,0,0,1-.28-.71.17.17,0,0,1,.19-.19,3.56,3.56,0,0,1,.85.28,39,39,0,0,0,5.94,1.46c0-2.31,0-4.48,0-6.32,0-3.87,0-6.51,0-7.12,0-.28.09-.52.38-.57.47,0,3.91-.24,3.91-.24s.33,0,.33.19c0,1.18-.8,3.87-1.32,14.39.66,0,1.27,0,1.89,0,8.07,0,14.48-3.21,14.48-10,0-5.66-6.51-8.11-13.77-8.11-9.15,0-19.43,3.91-19.43,10.47,0,.38.14.66.14,1,0,.19-.09.33-.19.33s-.19-.09-.33-.24h-.52a1.76,1.76,0,0,1-1.27-1.89c0-6.65,12.69-12.36,23.77-12.36,8.54,0,16.13,3.4,16.13,12.45,0,6.79-6,13.91-17,13.91-1.32,0-2.74,0-4.1-.09-.14,4.1-.19,9.06-.19,15.09C976.16,204.28,976.21,204.76,975.88,204.76Z"/><path class="cls-2" d="M995.73,203.77c-.52,0-1.13-.09-1.13-.47a.35.35,0,0,1,.09-.28c2.64-3.44,4.72-9.48,5.24-13.58a6.2,6.2,0,0,1-1.56-4.34c0-1.93.75-3.68,2.22-3.68s1.75,1,1.75,2.17c0,1-.24,2.17-.24,3.07s.09,1.13.42,1.13a2.61,2.61,0,0,0,1-.47c1.65-1.08,4.15-3.73,4.53-3.73.61,0,1.56,1.23,1.56,1.89a1.53,1.53,0,0,1-.14.61,28.71,28.71,0,0,0-2.69,9.76c0,2.5.8,4.06,1.89,4.06s2.08-1.18,3.11-3.91c.14-.33,0-.52.66-.94a.73.73,0,0,1,.28-.14c.09,0,.14.09.14.19a1,1,0,0,1,0,.24c-.33,2.78-2.12,8-5.75,8-2.59,0-3.35-2.69-3.35-5.71a33.28,33.28,0,0,1,1.18-7.92,6.51,6.51,0,0,1-2.78.57,3.37,3.37,0,0,1-.71,0,37.08,37.08,0,0,1-5,13.39C996.44,203.72,996.11,203.77,995.73,203.77Z"/><path class="cls-2" d="M1025.07,194.1a50,50,0,0,0,3.21-12.07c.09-1,2.17-1.93,2.88-1.93.14,0,.38,0,.38.24a34.69,34.69,0,0,0-.71,6.74c0,3.4,2.92,10.66,2.92,14.53a4.27,4.27,0,0,1-4.25,4.43,3.4,3.4,0,0,1-3.49-3.73c0-1.37.8-2.55,1.08-2.55,0,0,.09,0,.09.14v.19c0,1.89.75,2.78,1.84,2.78s1.56-1.13,1.56-2.74c0-3.73-2.12-10-2.12-11.18-.52,1-1.23,3.35-2.17,5.85-1.7,4.43-4.29,8.44-7.78,8.44-4.86,0-6.89-4.29-6.89-9,0-5.71,3-12,7.55-12,2.12,0,3.3,1.56,3.3,3.73,0,2.92-2.17,6.89-7.12,9.72.19,2.45,1,5.57,3.58,5.57C1022,201.27,1024.08,196.6,1025.07,194.1Zm-6-9.1c-2.08,0-3.63,4.53-3.73,8.73,1.89-1.27,4.43-5.52,4.43-7.83C1019.74,185.47,1019.55,185,1019,185Z"/><path class="cls-2" d="M1049,185.32c.19-.9.85-1.7,1.46-1.7.85,0,1.46-.52,1.84-.52.19,0,.28.14.33.61.09,1.56.09,3.49.09,5.33,0,2.22,0,4.34,0,5.57,1.51-3.3,3.25-8.82,6-11.41a.63.63,0,0,1,.38-.14c.52,0,2.17,1.08,2.17,1.65a.42.42,0,0,1,0,.24,27.09,27.09,0,0,0-1.65,9.67c0,2.5.61,5,1.6,5,.57,0,1.27-.8,2-2.88a.48.48,0,0,1,.19,0,.13.13,0,0,1,.14.14c0,1.93-1.27,4.81-3.16,4.81-4.1,0-4.39-8.07-4.39-10.42-2.26,2.45-3.4,8.91-4.43,12a.6.6,0,0,1-.61.47,3.77,3.77,0,0,1-2.31-1.27,1.46,1.46,0,0,1,0-.42c.19-.94.33-3.54.57-6.56.09-1.23.09-3,.09-4.81v-3.25c-1.13,4.1-2.78,16-7.45,16-4.86,0-6.84-4.25-6.84-9,0-5.75,3-12.12,7.59-12.12,2.12,0,3.3,1.56,3.3,3.73,0,2.92-2.17,6.89-7.12,9.72.28,3.91,1.7,5.42,3.25,5.42C1045.49,201.12,1048.13,189.62,1049,185.32Zm-6.56-.33c-2.08,0-3.63,4.53-3.73,8.73,1.89-1.27,4.43-5.52,4.43-7.83C1043.18,185.47,1043,185,1042.47,185Z"/><path class="cls-2" d="M1076.29,189c-.52,1-1.23,3.35-2.17,5.85-1.56,4-3.68,8.35-5.9,8.35-2.88,0-3.82-4.06-3.82-9.29a90.17,90.17,0,0,1,.94-11.65,24.74,24.74,0,0,1-2.59.09c-2.5,0-3.68-.8-3.68-3.35,0-.42.14-1.13.42-1.13a.34.34,0,0,1,.28.19,16.35,16.35,0,0,0,5.94.85h.14c.61-3.82,1.18-6.74,1.18-7.31v-.09a.8.8,0,0,1,.52-.28.28.28,0,0,1,.19,0c1,.71,3.25.61,3.25,1.65-.33,1.84-.75,3.77-1.18,5.8,5-.38,10-1.37,10.94-1.37.33,0,.75-.09,1.08-.09s.42,0,.42.24c0,.52-1.6.57-2.55,1.42a38.49,38.49,0,0,1-10.57,2.92,85.11,85.11,0,0,0-1.79,16.93c0,1.46.66,2.22,1.46,2.22,1.37,0,3.07-4.34,4.06-6.84A50,50,0,0,0,1076.1,182c.09-1,2.17-1.93,2.88-1.93.14,0,.38,0,.38.24a34.74,34.74,0,0,0-.71,6.74c0,2,.94,4.57,1.75,7.17a24,24,0,0,1,4-.38c11.79,0,25.28,5.52,35.47,5.52a16.34,16.34,0,0,0,8.3-1.84,5.34,5.34,0,0,1,1.42-.66s.09,0,.09,0a13.94,13.94,0,0,1-2,2.17c-1.84,1.79-4.2,5.57-12.45,5.57-11.08,0-23.16-8-33.06-8a7.28,7.28,0,0,0-1,0,11.89,11.89,0,0,1,.38,2.78,4.55,4.55,0,0,1-4.53,4.67,3.22,3.22,0,0,1-3.35-3.54c0-2.88,1.75-4.62,4.1-5.61-.38-2.17-1-4.48-1.37-6.08Zm-.14,12.12c.85,0,1.93-.8,1.93-2.64,0-.33,0-.71,0-1.08-1.93.71-3,1.84-3,2.64A1.05,1.05,0,0,0,1076.14,201.08Z"/></g></g></svg>