<svg xmlns="http://www.w3.org/2000/svg" viewBox="0 0 737.99 379.41"><defs><style>.cls-1{isolation:isolate;}.cls-2{mix-blend-mode:hard-light;}.cls-3{fill:#495760;}.cls-4{fill:#223a56;}.cls-5{fill:#f4edae;}</style></defs><title>Artboard 1</title><g class="cls-1"><g id="Outro_Card" data-name="Outro Card"><g class="cls-2"><path class="cls-3" d="M349,211.09c.2-.55.49-1.12.65-1.67a25.86,25.86,0,0,0,.81-4c0-.23,0-.42.05-.65a17.12,17.12,0,0,0,.19-2.55,23.28,23.28,0,0,0-.26-3.37,12.12,12.12,0,0,0-3.69-7.34L327,173.63c.14.08.2.29.33.4-4.07-4-10.51-4-13.8-3.66a36.18,36.18,0,0,0-16.77,6.41c-7.66,5.75-13.65,13.72-17.91,20.63l-18.56-16.85a8,8,0,0,1,1.43,1.74,7.51,7.51,0,0,0-4.43-3.29,7.61,7.61,0,0,1,.52-1.06c.67-1.36,1.34-2.69,2-4s1.17-2.37,1.77-3.49c1-1.86,1.9-3.72,2.82-5.57.33-.61.64-1.23.93-1.81,1.06-2.05,2.1-4.11,3.15-6.14.27-.55.58-1.11.85-1.71,1-1.95,2-3.85,3-5.71.26-.5.51-1.08.79-1.54,1-2,2-3.88,2.92-5.67.14-.27.25-.51.39-.75,1-2,2-3.8,2.86-5.57a4.11,4.11,0,0,0,.26-.44c2.93-5.67,5.26-10.1,6.78-12.83h0c.45-.84.8-1.46,1.11-1.95a2.84,2.84,0,0,1,.11-.27c.31-.46.49-.79.58-.87,1.21.25,24,4.64,34.24,6.56,14.64,2.73,36.42,5.48,57.44,3.16,18-2,32.29-7.35,42.53-15.94.89-.78,1.81-1.58,2.73-2.42.23-.21.46-.44.73-.68.74-.7,1.47-1.38,2.17-2.08l.52-.57c.83-.88,1.6-1.75,2.32-2.6.16-.18.27-.37.41-.51a23.55,23.55,0,0,0,1.45-2,2.28,2.28,0,0,1,.29-.42,1,1,0,0,1,.1-.21,12.65,12.65,0,0,0,.91-1.89.93.93,0,0,1,.06-.19v0c0-.06,0-.13.05-.15a4.57,4.57,0,0,0,.14-.92c0-.13,0-.23,0-.36a1.3,1.3,0,0,0-.52-1L414,79.52l0,0v0s0,0,0,0a3.83,3.83,0,0,0-1.19-.63c-1.25.27-3.52,2.5-5.82,4.95-3,3.36-6.87,7.52-11.36,10.05-6.81,3.75-15.23,6.27-25.17,7.35-22.73,2.52-49-2.34-68.14-5.94l-3.66-.66c5-11.15,13.17-29.32,23.29-51.18.33-.73.72-1.56,1.16-2.41s.87-1.69,1.32-2.6c.07-.15.13-.29.21-.46.44-.87.86-1.78,1.24-2.63.06-.13.09-.25.15-.38a17.55,17.55,0,0,0,.71-1.92,3.42,3.42,0,0,0,.15-.33c0-.11,0-.17.05-.25a9.54,9.54,0,0,0,.22-1.19,2.58,2.58,0,0,0,.06-.38s0,0,0-.08a1.34,1.34,0,0,0-.35-1L307,11.92c.06.06,0,.19.08.25-.08-.15-.15-.36-.32-.41a9.37,9.37,0,0,0-5.73-1.08l-1.42.2C293.91,12.1,285.95,30.09,280.4,42c-13.64,29.47-20.58,43.43-20.94,44.16l-1,.43c-.76-.19-14.81-4.11-22.61-5.9-18.52-4.29-41.88-9.42-71.54-15.55L157,63.6c-29.66-6.16-60.23-12.73-90-9.43-2.33.25-4.6.54-6.85,1C43.72,57.69,22.83,68.65,14.79,84.49c-4.75,9.23-4.26,18.57,1.58,27.63a38.31,38.31,0,0,0,6.84,7.69c-.19-.21-.46-.35-.66-.53L42.31,137.2c15,13.59,43.6,21,65,20.59,8-.13,15.13-.59,21.39-1.27,17.39-1.92,28.41-5.6,35.53-8.55.35-.17.81-.33,1.33-.57a1.64,1.64,0,0,1,.47-.2c.38-.2.76-.37,1.22-.57.26-.1.5-.26.77-.39s.76-.33,1.17-.55.58-.3.87-.46a13,13,0,0,0,1.17-.63c.25-.1.49-.28.73-.39C168,152.39,164.07,161,160,170c-4.82,10.8-9.87,22-15.64,33.6-2.69,5.41-5.4,11.42-8.37,17.8-12.13,26.71-27.18,59.88-49,69.41a52.22,52.22,0,0,1-14.68,3.89,45.26,45.26,0,0,1-19.24-2c-.21-.68-.48-1.31-.65-2a48.77,48.77,0,0,1-.88-5.12c-.09-.63-.09-1.26-.16-1.89-.07-1.09-.17-2.2-.18-3.27,0-.52,0-1,0-1.57.05-1.51.14-3,.3-4.44.09-.57.15-1.13.23-1.69a41.7,41.7,0,0,1,1.06-4.92c.05-.23.09-.5.16-.75a45.83,45.83,0,0,1,1.72-4.67c.14-.31.3-.63.48-1,.55-1.1,1.11-2.2,1.73-3.26a38.56,38.56,0,0,1,2.17-3.31,30,30,0,0,1,21-12.17,26.65,26.65,0,0,1,11,1.19,11.32,11.32,0,0,0,3.56.59,1.56,1.56,0,0,0,.85-.28c.08-.07.16-.18.23-.24a2.91,2.91,0,0,0,.68-.7.2.2,0,0,1,.06-.11s0,0,0-.08a1.61,1.61,0,0,0,.18-.38,1.45,1.45,0,0,0,.07-.47s0,0,0-.06a2.53,2.53,0,0,0-.46-1.2,5.55,5.55,0,0,0-.92-1.09L85,230.41a3.72,3.72,0,0,1-.5-.43q-4.43-4-8.88-8.06a4.7,4.7,0,0,1,.93,1.1c-1.84-2.93-9.43-5.81-16.49-5a41.47,41.47,0,0,0-26.83,14.27c-7.61,8.61-11.69,20-11,30.29.75,10.82,6.13,20.07,13.84,26.92a1.88,1.88,0,0,1-.33-.28c3.28,3,6.56,6,9.87,8.94l9.86,8.94c10.26,9.36,24.71,14.26,37.79,12.81,17.53-2.21,36.45-15.09,50.56-34.29,2-2.62,3.87-5.42,5.79-8.32.58-.81,1.14-1.74,1.72-2.67.85-1.34,1.73-2.63,2.59-4.06.27-.42.55-1,.83-1.46,2.77-4.52,5.48-9.21,8.1-14.13.56-1,1.08-1.92,1.57-3,2.42-4.49,4.78-9.08,7.11-13.69.4-.85.84-1.64,1.24-2.43,2.61-5.27,5.13-10.53,7.61-15.82l1.78-3.72c2.34-5,4.67-10,6.91-14.89,3.77-8.07,7.39-15.86,10.81-23,3.63-7.62,6.89-15.39,10.08-22.86,1.25-3,2.48-5.95,3.7-8.84.52-1.29,1.08-2.42,1.58-3.61.74-1.68,1.47-3.36,2.22-4.95.58-1.27,1.18-2.45,1.77-3.68.73-1.48,1.44-3,2.18-4.44.63-1.14,1.28-2.24,1.94-3.39.86-1.55,1.68-3.13,2.61-4.58,3-4.75,10.49-12.42,14.68-13.19l7.14,2c-17.09,35.14-68.15,140.15-69,141.69-2.82,5.27-8.22,15-6.52,17.36.07.11.24.16.38.28-.06,0-.17,0-.19-.08l19.75,17.94c.76.71,2.58.53,4.8.29.59-.05,1.11-.17,2.51-.26a4,4,0,0,0,1.83-.87c.19-.17.38-.31.56-.49a17.94,17.94,0,0,0,1.58-1.53,6.72,6.72,0,0,1,.56-.64c.68-.86,1.39-1.79,2.12-2.81.09-.12.21-.33.34-.52.6-.88,1.19-1.79,1.79-2.75l.25-.42a7.56,7.56,0,0,0,.4-.68c.46-.73.9-1.46,1.31-2.18.17-.32.33-.57.47-.87.57-1,1.09-1.93,1.55-2.77,1.15-2.18,2.24-4.13,3.29-6,.19-.32.38-.65.55-1,1-1.67,1.91-3.26,2.8-4.73.16-.27.3-.5.48-.78.62-1,1.2-1.82,1.8-2.82a10.85,10.85,0,0,0,3.25,4.93,1.82,1.82,0,0,0-.27-.24L243.91,279a2.4,2.4,0,0,1,.26.27c2.58,2.13,6.37,2.88,10.49,2.41a25.69,25.69,0,0,0,12.59-5.17,143.26,143.26,0,0,0,15.91-15.9l11.67,10.59a16.49,16.49,0,0,0,13.62,4.12c8-.84,17.09-6.2,24.16-14.31.26-.32.61-.75,1-1.22.26-.38.59-.85.92-1.25.17-.2.29-.37.44-.56.28-.37.55-.81.83-1.2s.52-.69.79-1.08.43-.66.64-1,.61-.87.89-1.34c0,0,0-.1.08-.15.6-1,1.19-2,1.68-3,.11-.24.18-.45.28-.64a23.09,23.09,0,0,0,.93-2.31,2.27,2.27,0,0,1,.16-.42c.05-.25.05-.44.11-.67a5.32,5.32,0,0,0,.21-1.32c0-.15.08-.33.08-.47a3.87,3.87,0,0,0-.14-1.1,2.87,2.87,0,0,0-.83-1.35l-9.6-8.76a48.46,48.46,0,0,0,8.84-7.62,57.35,57.35,0,0,0,5-6.5c.15-.21.32-.47.47-.7s.25-.4.38-.55a38.46,38.46,0,0,0,2.71-5.38C348.7,212,348.84,211.51,349,211.09ZM307.36,12.84s0,.06,0,.11a1.44,1.44,0,0,1,0,.36A2.6,2.6,0,0,0,307.36,12.84Zm-.22,1.53a.77.77,0,0,0,0,.15l-.08.29C307.08,14.66,307.11,14.56,307.14,14.37Zm-1.09,3.15h0a.36.36,0,0,0,0,.12C306,17.58,306,17.52,306.05,17.52Zm-1.11,2.33s0,.06-.05.08c-.16.38-.33.69-.52,1.08C304.56,20.6,304.75,20.24,304.94,19.84Zm-247.26,281h0c.57.14,1.17.25,1.73.41C58.85,301.08,58.27,300.92,57.68,300.81Zm118.1-164.15-18.55-16.85.06.06c-.27-.29-.92-.39-1.91-.28a28.46,28.46,0,0,0-6.27,1.69c-9.4,3.42-27,7.35-34.48,8.16-25.06,2.78-48.69.79-64.82-4.91a70.4,70.4,0,0,1-9.6-4.21,4.61,4.61,0,0,0-.2-.47,30.81,30.81,0,0,1-.82-6.47c0-.63.07-1.24.11-1.89a23.28,23.28,0,0,1,.59-4.29,20.57,20.57,0,0,1,.65-2.13,17.27,17.27,0,0,1,1.33-3,17.63,17.63,0,0,1,1.73-3c8.43-11.34,26.74-14.84,36.82-16,3.26-.35,6.44-.58,9.6-.73,30.19-.72,61.64,6.43,91.22,12.93,5.55,1.25,12.29,2.77,19,4.32C190.4,110.8,182.76,123.16,175.77,136.66ZM302.46,245.42a14.55,14.55,0,0,1-1.89,1.41c.05-.17.06-.38.12-.5a1.91,1.91,0,0,1,.18-.52c.15-.07.78-.21,1.61-.45A.09.09,0,0,0,302.46,245.42Z"/><path class="cls-3" d="M496.91,312.76c-.09-.88-.12-1.78-.27-2.62a31.12,31.12,0,0,0-.89-3.67c-.22-.8-.36-1.57-.61-2.3a40.26,40.26,0,0,0-1.64-3.88c-.26-.53-.46-1.18-.79-1.74a41.17,41.17,0,0,0-3.34-5.19,29.22,29.22,0,0,0-3-3.2l-19.74-17.88.28.3c-5.36-5-13.36-8.82-17.62-8.37-1.53.2-2.58.93-2.82,2.32-.05.33.11.55.43.83-.05-.06-.17-.07-.19-.09L465,283.82a60.92,60.92,0,0,1-6.68,46.91c-6.67,11-16.18,18.55-26.64,21.4a78.46,78.46,0,0,1-11.16,2.15c-9.28,1-17.76,0-25.07-3.13-.52-.92-1.07-1.83-1.55-2.79-.33-.74-.67-1.5-1-2.28-.45-1-.89-2.09-1.27-3.15-.29-.84-.58-1.64-.82-2.51-.35-1.1-.66-2.23-.93-3.38-.24-.86-.41-1.69-.61-2.65-.24-1.17-.44-2.32-.61-3.6-.13-.9-.25-1.78-.37-2.67-.14-1.28-.22-2.64-.28-4-.06-.88-.12-1.76-.12-2.64-.05-2.06-.05-4.13.09-6.2a101,101,0,0,1,1.16-10.07c.17-1.07.43-2,.64-3.05.42-2.17.87-4.31,1.45-6.35.28-1,.61-2,.91-3,.8-2.42,1.62-4.81,2.6-7.11.35-.76.64-1.6,1-2.35a82.47,82.47,0,0,1,4.39-8.33c.26-.45.58-.85.87-1.28,1.4-2.2,2.89-4.35,4.47-6.35.58-.67,1.13-1.37,1.73-2.08,1.53-1.86,3.15-3.56,4.8-5.25.48-.44.9-.93,1.38-1.4a83.51,83.51,0,0,1,6.71-5.69c.49-.43,1-.75,1.57-1.16,1.88-1.35,3.78-2.68,5.75-3.9.69-.45,1.41-.9,2.14-1.31,2.14-1.28,4.33-2.45,6.55-3.55.33-.16.7-.36,1.08-.55,2.57-1.25,5.18-2.32,7.81-3.3.69-.23,1.4-.47,2.12-.73,2-.71,4-1.37,6.06-2,.78-.19,1.53-.41,2.29-.61,2.64-.68,5.29-1.29,7.92-1.76,1.41-.25,3-.47,4.57-.64,2.41-.23,4.88-.45,6.93-.48,2.4-.08,4.5-.17,6.32-.36a11.7,11.7,0,0,0,6-2,10.22,10.22,0,0,0,2.15-2.1.77.77,0,0,0,.2-.27c.05,0,.14-.06.17-.17a2.85,2.85,0,0,0,.36-.79,1.78,1.78,0,0,0,.11-.54,2.77,2.77,0,0,0,0-.29,2.84,2.84,0,0,0-.87-1.4l-19.74-17.89s0,.06.05.08c-2.6-2.49-10.47-3.29-15.75-4.14a26.56,26.56,0,0,1-2.66-.48,37.64,37.64,0,0,1-1.57-5.75,51.52,51.52,0,0,1-.81-8.15c0-.32,0-.67,0-1a71.21,71.21,0,0,1,.42-8.19c.08-.65.17-1.32.27-2q.44-3.62,1.25-7.32a9,9,0,0,1,.25-1.26c.61-2.75,1.36-5.44,2.18-8.11.28-.91.59-1.81.89-2.73.65-1.92,1.32-3.84,2.07-5.69.35-.87.68-1.75,1-2.58.87-2.07,1.76-4.08,2.71-5.95.23-.48.45-1,.69-1.48,1.21-2.35,2.42-4.49,3.67-6.44a9.4,9.4,0,0,1,.66-1A46.77,46.77,0,0,1,468.5,130c10.61-12.69,28.89-22.38,45.41-24.21a43.63,43.63,0,0,1,14.15.61c3.45,12.5.26,28.61-3.91,34.83A37.29,37.29,0,0,1,511.3,153c-3.05,1.92-3.49,2.31-3,3.2.14.32.4.44.61.62-.06-.08-.16,0-.2-.05l19.73,17.88a2.09,2.09,0,0,0,1.81.45c2.8-.3,7.28-3.69,9.75-5.58l1.13-.94c1.26-.91,2.52-2,3.79-3.07.4-.33.77-.7,1.14-1,.91-.83,1.79-1.67,2.67-2.56.41-.43.82-.86,1.22-1.26.92-1,1.79-2,2.65-3.07.28-.32.58-.66.84-1a49.1,49.1,0,0,0,3-4.31,1,1,0,0,0,.14-.2,13.12,13.12,0,0,0,.72-1.35,25.84,25.84,0,0,0,1.28-2.39,16.73,16.73,0,0,0,.68-1.64c.33-.79.65-1.58.9-2.37a1.6,1.6,0,0,0,.14-.38,21.07,21.07,0,0,0,.75-3.26,47,47,0,0,0,.55-6.89c0-.32-.09-.59-.09-.86,0-.75-.12-1.49-.19-2.2a38.14,38.14,0,0,0-.76-4.93c-.19-.78-.41-1.51-.66-2.3a30.11,30.11,0,0,0-1.86-4.33,20.21,20.21,0,0,0-1-1.84A28.82,28.82,0,0,0,553,112c-.38-.36-.72-.7-1.1-1L532.14,93c.36.37.71.66,1.07,1-9-9-25.17-13.49-41.62-11.67-1.12.09-2.28.26-3.39.45C460.4,87.29,432.43,108.76,420,135c-9.93,21.1-8.47,41.85,4,58.55a35.89,35.89,0,0,0,5.87,6.06,13.9,13.9,0,0,1-1.36-1.15l13.34,12.12c-.37,0-.73.09-1,.12-1.86.12-3.65.3-5.18.49a33.49,33.49,0,0,0-3.75.49c-34.82,7.47-73.92,37.37-78,78.14-1.52,15.94,3.19,33.86,8.4,42.62a44.78,44.78,0,0,0,8.77,10.08c-.17-.17-.42-.33-.6-.51l19.74,17.91C402,370.42,421,379.68,437.09,379.4c1.44,0,2.84-.14,4.28-.26a49.24,49.24,0,0,0,7.1-1.36c.81-.23,1.58-.56,2.38-.78a46.62,46.62,0,0,0,4.61-1.59c.92-.38,1.82-.81,2.75-1.27a41.83,41.83,0,0,0,4-2c.92-.49,1.84-1.08,2.76-1.68,1.27-.81,2.51-1.56,3.73-2.46.88-.66,1.78-1.33,2.64-2.05,1.19-.92,2.33-1.87,3.45-2.91.84-.75,1.65-1.52,2.46-2.31,1.08-1.11,2.13-2.22,3.15-3.42.75-.83,1.48-1.64,2.18-2.53,1-1.26,2-2.58,2.86-3.87.63-.89,1.24-1.76,1.81-2.67a6.23,6.23,0,0,0,.59-.81c1.13-1.89,2.21-3.82,3.19-5.81a64.26,64.26,0,0,0,2.58-6c.24-.61.44-1.25.65-1.84.26-.78.58-1.63.82-2.38.14-.47.18-.91.3-1.37.37-1.37.65-2.74.89-4.08.17-.93.36-1.86.47-2.78.19-1.4.26-2.72.33-4.08,0-.63.12-1.32.12-1.95,0-.25-.05-.48-.05-.71C497.18,315.14,497,313.94,496.91,312.76Z"/><path class="cls-3" d="M737.41,90.91a1.08,1.08,0,0,0-.26-.32c-.28-.27-.69-.64-1-.91q-9.39-8.48-18.76-17a3.35,3.35,0,0,1,.3.38,2.75,2.75,0,0,0-2.78-.9,18.89,18.89,0,0,0-6.06,2.23c-4.36,2.25-9.76,13.94-13,20.92-.8,1.91-40,83.55-42.59,88.8-1.2-1.09-2.42-2.18-3.63-3.29l.12.15a20.16,20.16,0,0,0-6.69-3.91,17.24,17.24,0,0,0-8.1-.8c-12.25,1.34-27.8,11.94-35.81,21.39a73.89,73.89,0,0,0-5.72,8.09c-.13-.12-.15-.29-.27-.42h0l-13.73-12.47-6-5.43,0,0a8.87,8.87,0,0,1,1.06,1.45c-1.77-2.61-4.74-3.88-9.26-3.38a19.07,19.07,0,0,0-2,.3c-7.12,1.45-14.33,6.41-18.89,11.24-1.24,1.17-2.35,2.39-3.41,3.44-.92.86-1.65,1.6-2.43,2.41L526.89,192.4a.07.07,0,0,1,.05,0,.18.18,0,0,0-.05-.06,5.72,5.72,0,0,1,1.24,1.53c-1.2-2.16-3.49-3.35-6.79-3.3-6.58.7-15.06,9-18.28,12.11-9.39,9.08-10.38,13.06-10.1,14.6a2.38,2.38,0,0,0,1.93,1.84,2.91,2.91,0,0,1-1.25-.63h0l8.88,8,2.41,2.18c-12.55,26-25.16,45.42-22.27,47.41L502.44,294c.6.43,2.17.41,3.71.25.51-.05,1-.12,1.44-.17.82-.11,1.5-.18,2.11-.21a4.72,4.72,0,0,0,1.92-.93l.6-.49a13.26,13.26,0,0,0,1.64-1.69c.19-.17.33-.37.51-.53.69-.87,1.41-1.78,2.1-2.79.2-.33.39-.63.57-.92.53-.81,1.08-1.61,1.6-2.42.09-.15.17-.3.28-.45s.21-.33.33-.55c.47-.81.92-1.55,1.36-2.3l.23-.4c.53-.91,1-1.76,1.47-2.5s.87-1.45,1.18-1.95a1.86,1.86,0,0,0,.21-.37L532,261.75c.3-.46.66-1,1-1.44.5,2.92,1.49,5.19,3.13,6.58a.66.66,0,0,0-.13-.15h0l19.73,17.84a.42.42,0,0,0,.15.19c1.77,1.5,4.17,2.09,7.28,1.76,7.07-.78,15.89-6.34,21.11-11.15,1.27-1.22,5.72-5.89,9.42-9.83,4.65,4.24,9.33,8.45,14,12.73a14.62,14.62,0,0,0,5.36,3,139.37,139.37,0,0,0-3.52,23.38A41.25,41.25,0,0,0,623,337l19.75,17.93c7.14,6.35,15.54,9.33,23.8,8.41,7.15-.8,14-4.58,19.71-11.15a41.48,41.48,0,0,0,3.42-4.59,7.26,7.26,0,0,1,.49-.68c.31-.55.56-1.1.87-1.58s.38-.7.53-1A23.41,23.41,0,0,0,693,340.8v-.11c.07-.21,0-.38.12-.57a11.8,11.8,0,0,0,.37-2.33c0-.25,0-.48,0-.69a4.31,4.31,0,0,0-1.29-2.6l-19.74-17.9c.07.11.06.23.15.29a3.66,3.66,0,0,0-.86-.79,5,5,0,0,0-2.85-.91c-1.7.18-2.54,2.3-3.67,5.83a34.36,34.36,0,0,1-3.46,8.16c-3.42,5.3-9.07,8.58-15.95,9.3a24.78,24.78,0,0,1-5.78,0,1.31,1.31,0,0,0-.09-.31c-.14-.58-.23-1.21-.33-1.84-.2-.94-.36-2-.47-3-.08-.67-.12-1.36-.18-2-.06-1-.12-2-.12-3,0-.63,0-1.28,0-1.93,0-1.3.07-2.64.19-4,.05-.57.06-1.15.12-1.72.18-1.75.41-3.51.72-5.2,0-.19,0-.29.05-.46.31-1.91.73-3.76,1.15-5.64.16-.61.31-1.2.46-1.82.32-1.33.7-2.66,1.07-3.94.16-.58.3-1.16.48-1.69.68-2.23,1.37-4.47,2.13-6.65.12-.33.24-.59.37-.92.67-2,1.41-3.93,2.13-5.81.17-.42.31-.82.49-1.2.79-2,1.54-3.92,2.31-5.77.24-.56.48-1.09.72-1.62.7-1.75,1.4-3.42,2.08-5l1.49-3.45c15.2-36,33.16-72.57,50.51-108,6.27-12.63,19.58-39.84,20.33-41.31.43-.72,1-1.66,1.51-2.66.12-.26.25-.43.38-.66.55-1,1.14-2.12,1.76-3.3.11-.17.17-.33.27-.47.73-1.35,1.45-2.75,2.17-4.2a8.16,8.16,0,0,1,.35-.75c.6-1.2,1.14-2.41,1.71-3.64.16-.38.34-.71.52-1.12a62.57,62.57,0,0,0,2.82-7.36c.07-.29.14-.51.2-.77s.12-.54.2-.84a18.13,18.13,0,0,0,.47-3s0-.08,0-.15v-.06A4.15,4.15,0,0,0,737.41,90.91ZM575.12,189.69c0,.06.08.06.12.13a11.39,11.39,0,0,1,1,3.35A10.62,10.62,0,0,0,575.12,189.69Zm19.54,46.2c0,.19-.06.33-.12.56-.14.48-.23.91-.37,1.33C594.36,237.15,594.46,236.56,594.66,235.89Zm-1.17,4.61c-.09.44-.16.8-.22,1.22,0,0,0,.1-.05.15C593.32,241.41,593.37,241,593.49,240.51Zm-.6,10.62c0,.15.11.32.13.44s0,.19,0,.25C593,251.63,592.94,251.4,592.89,251.13Zm2.35,12.73h0a11.85,11.85,0,0,0,3,0A12.68,12.68,0,0,1,595.24,263.85Zm.62-31.65a.18.18,0,0,1,0,.06c.21-.69.4-1.29.65-2C596.24,231,596.09,231.53,595.85,232.2ZM622.21,241c-1.08,1.09-2.85,2.67-4.93,4.39.45-1.2.85-2.33,1.34-3.57,1.31-3.33,2.69-6.37,4.07-9.28.42-.84.84-1.63,1.25-2.5,1-2,2.1-3.93,3.17-5.78.46-.72.88-1.48,1.34-2.2a66.31,66.31,0,0,1,4.37-6.25,5.21,5.21,0,0,1,.33-.46,45.18,45.18,0,0,1,5-5.32c.47-.42,1-.83,1.44-1.24a32.6,32.6,0,0,1,4-2.95,14.3,14.3,0,0,1,1.59-1,.15.15,0,0,1,.09-.06C641.73,215.2,630.11,233,622.21,241Z"/></g><path class="cls-4" d="M337.42,200.48c.2-.58.49-1.12.65-1.71a27.23,27.23,0,0,0,.83-3.92c0-.23,0-.42,0-.63a19,19,0,0,0,.19-2.56,23.51,23.51,0,0,0-.26-3.42,12,12,0,0,0-3.69-7.31L315.42,163c.14.13.21.29.32.41-4.06-4-10.49-4.07-13.78-3.65a36.45,36.45,0,0,0-16.78,6.37c-7.67,5.76-13.63,13.75-17.91,20.62L248.71,170a7.71,7.71,0,0,1,1.45,1.74,7.71,7.71,0,0,0-4.45-3.32c.17-.36.35-.68.52-1.06.68-1.33,1.33-2.66,2-4,.62-1.16,1.19-2.31,1.76-3.47,1-1.87,1.92-3.76,2.84-5.57l1-1.82c1-2.08,2.11-4.12,3.11-6.11.32-.59.59-1.14.89-1.71l2.92-5.73c.27-.53.53-1,.8-1.57,1-2,2-3.87,2.92-5.65a6.15,6.15,0,0,0,.37-.71l2.88-5.57c.08-.19.18-.33.24-.51,3-5.59,5.27-10.05,6.78-12.78v0c.47-.85.82-1.46,1.12-2a1,1,0,0,1,.11-.21,4.88,4.88,0,0,1,.61-.91c1.16.25,23.93,4.64,34.23,6.56,14.61,2.74,36.41,5.45,57.43,3.2,18-2,32.29-7.37,42.54-16,.88-.73,1.8-1.55,2.69-2.38.24-.21.5-.47.76-.7.72-.69,1.46-1.37,2.16-2.1.16-.19.35-.37.52-.56.84-.87,1.59-1.75,2.32-2.58a6.1,6.1,0,0,0,.41-.58A15.4,15.4,0,0,0,421.05,92a1.67,1.67,0,0,1,.32-.4,1.05,1.05,0,0,0,.09-.26,8,8,0,0,0,.9-1.86c0-.06.06-.13.07-.21s0,0,0,0,0-.1,0-.19a4.75,4.75,0,0,0,.17-.87,2.33,2.33,0,0,1,0-.36,1.83,1.83,0,0,0-.53-1l-19.7-17.84s0,0,0,0h0a3.15,3.15,0,0,0-1.19-.59c-1.25.25-3.54,2.45-5.81,4.88-3.06,3.43-6.88,7.56-11.37,10.12-6.8,3.74-15.25,6.21-25.18,7.33-22.73,2.52-49-2.39-68.14-6L287,84c5-11.16,13.18-29.33,23.27-51.19.35-.75.72-1.53,1.17-2.39s.86-1.72,1.31-2.63c.06-.15.14-.25.21-.42.43-.91.86-1.77,1.24-2.64a3,3,0,0,0,.17-.38c.28-.7.53-1.31.72-1.9,0-.16.09-.3.12-.41s0-.12.06-.23a9.24,9.24,0,0,0,.22-1.13,3.2,3.2,0,0,0,0-.38s0,0,0-.08a1.4,1.4,0,0,0-.35-1L295.47,1.31c.06.06,0,.17.08.25-.09-.15-.16-.33-.32-.4A8.81,8.81,0,0,0,289.5.09a9.5,9.5,0,0,0-1.41.19c-5.71,1.2-13.71,19.21-19.24,31.08-13.66,29.43-20.58,43.39-20.95,44.13l-1,.46c-.73-.2-14.81-4.12-22.6-5.93-18.51-4.26-41.89-9.4-71.54-15.54L145.45,53c-29.64-6.23-60.22-12.77-90-9.48-2.31.25-4.61.55-6.87,1C32.15,47.1,11.26,58,3.21,73.88c-4.75,9.2-4.24,18.54,1.63,27.6a36.46,36.46,0,0,0,6.81,7.71c-.18-.15-.46-.33-.64-.51l19.73,17.91c15,13.58,43.6,21,65,20.61,8-.12,15.14-.6,21.41-1.26,17.38-1.95,28.4-5.58,35.51-8.6a13.89,13.89,0,0,0,1.33-.6,2.58,2.58,0,0,0,.48-.17c.39-.18.77-.33,1.23-.52.26-.14.5-.26.76-.38s.77-.39,1.16-.61.57-.26.88-.43.77-.39,1.16-.63a7.44,7.44,0,0,0,.75-.43c-4,8.26-7.88,16.83-11.93,25.85-4.83,10.82-9.88,22-15.63,33.61-2.71,5.4-5.41,11.39-8.38,17.78-12.13,26.7-27.2,59.89-49,69.39a50.23,50.23,0,0,1-14.64,3.91,44.64,44.64,0,0,1-19.27-2c-.22-.69-.48-1.33-.65-2a45.94,45.94,0,0,1-.86-5.13,15.61,15.61,0,0,1-.16-1.88c-.11-1.09-.19-2.2-.19-3.29,0-.52,0-1,0-1.57,0-1.45.12-2.93.31-4.46.06-.55.13-1.13.23-1.7a39.22,39.22,0,0,1,1-4.87c.06-.25.09-.52.18-.75a43,43,0,0,1,1.7-4.62c.14-.34.33-.71.49-1a36.83,36.83,0,0,1,1.73-3.26,39.45,39.45,0,0,1,2.18-3.3,30.14,30.14,0,0,1,21-12.16,27.7,27.7,0,0,1,10.93,1.15,10.32,10.32,0,0,0,3.56.59,1.61,1.61,0,0,0,.86-.27c.09,0,.17-.19.24-.23a2.25,2.25,0,0,0,.65-.7,1.08,1.08,0,0,0,.06-.11.32.32,0,0,0,.05-.08,3.11,3.11,0,0,0,.18-.38,3.44,3.44,0,0,0,.07-.46s0,0,0-.06a2.17,2.17,0,0,0-.44-1.19,4.74,4.74,0,0,0-.94-1.12L73.47,219.8a5.1,5.1,0,0,1-.49-.43l-8.89-8.06a7.27,7.27,0,0,1,.93,1c-1.81-2.88-9.42-5.77-16.47-5a41.58,41.58,0,0,0-26.86,14.26c-7.6,8.6-11.66,20-11,30.32.73,10.81,6.14,20.07,13.84,26.91-.13-.12-.25-.21-.34-.29,3.29,3,6.57,6,9.88,9l9.87,8.94c10.24,9.28,24.7,14.24,37.81,12.81C99.27,307,118.19,294.19,132.31,275c1.94-2.63,3.85-5.45,5.76-8.32.59-.85,1.16-1.8,1.74-2.67.86-1.35,1.72-2.68,2.58-4.07.28-.48.56-1,.85-1.44q4.14-6.84,8.11-14.15c.53-1,1-2,1.57-2.95,2.4-4.53,4.75-9.1,7.09-13.73.4-.84.83-1.63,1.23-2.43q3.91-7.9,7.62-15.76c.6-1.29,1.19-2.54,1.77-3.85,2.36-5,4.67-9.92,6.92-14.81,3.79-8.1,7.38-15.86,10.81-23,3.62-7.63,6.89-15.38,10.08-22.84,1.24-3,2.46-6,3.7-8.85.53-1.23,1.07-2.37,1.59-3.57.72-1.69,1.46-3.38,2.2-5,.59-1.22,1.19-2.41,1.78-3.64.72-1.5,1.44-3,2.19-4.43.62-1.14,1.28-2.24,1.92-3.4.87-1.54,1.71-3.15,2.63-4.57,2.93-4.77,10.49-12.45,14.67-13.2l7.12,1.91c-17.08,35.19-68.12,140.25-69,141.77-2.83,5.27-8.23,15-6.52,17.37a1.44,1.44,0,0,0,.37.22c-.05,0-.13,0-.17,0l19.74,17.88c.79.72,2.58.56,4.81.31.58-.05,1.1-.17,2.51-.23a4.5,4.5,0,0,0,1.82-.89,7,7,0,0,1,.56-.47c.5-.45,1-1,1.58-1.58.17-.23.35-.38.54-.64a34.13,34.13,0,0,0,2.12-2.8c.08-.15.23-.32.35-.49.61-.91,1.19-1.8,1.76-2.72a1.8,1.8,0,0,1,.27-.42c.16-.26.26-.47.39-.7.46-.75.91-1.49,1.33-2.22.17-.28.35-.58.48-.83.55-1,1.07-2,1.53-2.78,1.17-2.18,2.25-4.12,3.3-6,.18-.3.36-.62.53-.93,1-1.68,1.9-3.26,2.81-4.71.15-.29.33-.52.47-.81.63-1,1.19-1.87,1.81-2.8a11.09,11.09,0,0,0,3.24,4.92l-.26-.25,19.74,17.92c.07.08.18.14.26.24,2.57,2.16,6.37,2.9,10.47,2.44a25.83,25.83,0,0,0,12.59-5.16A150.86,150.86,0,0,0,271.6,250l11.65,10.6a16.7,16.7,0,0,0,13.65,4.11c8-.87,17.07-6.22,24.15-14.35.24-.27.61-.72,1-1.19a15.52,15.52,0,0,0,.94-1.28,2.59,2.59,0,0,0,.46-.56c.25-.36.53-.77.82-1.12l.79-1.12.63-1c.3-.43.6-.87.89-1.36,0,0,.06-.12.08-.15.59-1,1.19-2,1.69-3,.11-.19.17-.42.28-.65.35-.76.67-1.51.92-2.22a3.81,3.81,0,0,1,.15-.46,4.06,4.06,0,0,0,.13-.67,7.5,7.5,0,0,0,.21-1.31c0-.15.09-.31.09-.48a3.64,3.64,0,0,0-.16-1.13,2.65,2.65,0,0,0-.81-1.32l-9.62-8.74a47.91,47.91,0,0,0,8.85-7.64,57.07,57.07,0,0,0,5-6.5c.14-.24.33-.49.47-.7s.28-.39.39-.6a37,37,0,0,0,2.7-5.35C337.12,201.36,337.27,200.9,337.42,200.48ZM295.76,2.22a.13.13,0,0,1,.05.11,1.5,1.5,0,0,1-.05.36A1,1,0,0,0,295.76,2.22Zm-.19,1.56a.6.6,0,0,0,0,.13c0,.11-.06.21-.09.31A2.15,2.15,0,0,0,295.57,3.78Zm-1.09,3.07v0a.28.28,0,0,0,0,.11S294.47,6.92,294.48,6.85Zm-1.11,2.39s0,0,0,.06c-.17.36-.35.74-.53,1.08C293,10,293.19,9.63,293.37,9.24Zm-247.26,281h0c.6.11,1.17.25,1.73.35C47.28,290.46,46.7,290.32,46.11,290.21ZM164.2,126l-18.53-16.79s0,0,0,.05c-.26-.32-.93-.4-1.92-.29a29.57,29.57,0,0,0-6.25,1.7c-9.4,3.38-27,7.32-34.49,8.15-25.07,2.77-48.69.8-64.82-4.88a88.07,88.07,0,0,1-9.61-4.24c0-.15-.14-.33-.19-.5a32.55,32.55,0,0,1-.82-6.46c0-.63.08-1.27.12-1.88a24.69,24.69,0,0,1,.58-4.29c.19-.76.42-1.43.65-2.13a17.27,17.27,0,0,1,1.34-2.93,16.67,16.67,0,0,1,1.72-3c8.44-11.32,26.74-14.81,36.83-15.93,3.25-.36,6.44-.58,9.6-.72,30.18-.77,61.62,6.37,91.2,12.91,5.59,1.24,12.31,2.76,19,4.34C178.84,100.18,171.18,112.52,164.2,126Zm126.71,108.8c-.45.38-1.14.89-1.9,1.44,0-.17.07-.4.08-.52a2.61,2.61,0,0,1,.21-.56,11.77,11.77,0,0,1,1.63-.39A0,0,0,0,0,290.91,234.82Z"/><path class="cls-4" d="M485.35,302.14c-.08-.9-.15-1.78-.27-2.63-.21-1.24-.58-2.49-.9-3.68-.2-.7-.35-1.54-.6-2.25a39.21,39.21,0,0,0-1.64-3.87c-.28-.61-.47-1.2-.79-1.75a34.58,34.58,0,0,0-3.37-5.2,22,22,0,0,0-3-3.18l-19.74-17.91c.13.1.19.23.29.31-5.34-5-13.37-8.77-17.64-8.35a2.83,2.83,0,0,0-2.8,2.28.74.74,0,0,0,.43.81s-.17,0-.2-.08l18.27,16.57a61,61,0,0,1-6.7,46.92c-6.68,10.93-16.15,18.55-26.61,21.42a79.65,79.65,0,0,1-11.18,2.11c-9.3,1-17.77,0-25.08-3.1-.53-.93-1-1.85-1.55-2.8-.35-.71-.67-1.52-1-2.27-.46-1-.88-2.1-1.29-3.16-.26-.86-.55-1.66-.79-2.48-.34-1.11-.66-2.25-1-3.4-.21-.86-.41-1.74-.59-2.63-.22-1.17-.45-2.39-.61-3.57-.15-.94-.26-1.8-.38-2.75-.12-1.28-.21-2.59-.27-3.89-.05-.9-.09-1.78-.12-2.71,0-2,0-4.07.09-6.19a100.68,100.68,0,0,1,1.15-10.06c.19-1,.43-2,.63-3.07.45-2.13.91-4.26,1.48-6.34.27-1,.6-2,.9-2.95.79-2.43,1.64-4.83,2.62-7.12.32-.8.63-1.6,1-2.36a89.48,89.48,0,0,1,4.37-8.35c.26-.42.61-.85.87-1.25a71.5,71.5,0,0,1,4.51-6.35l1.71-2.13c1.53-1.8,3.13-3.55,4.8-5.2.47-.47.91-1,1.35-1.4a83.48,83.48,0,0,1,6.71-5.72c.51-.43,1-.75,1.56-1.15,1.91-1.4,3.82-2.69,5.75-3.92.75-.43,1.44-.88,2.15-1.32,2.18-1.27,4.34-2.4,6.54-3.51.38-.15.75-.39,1.11-.55,2.59-1.22,5.2-2.33,7.81-3.3.72-.28,1.43-.5,2.12-.72,2-.73,4.06-1.4,6.07-2,.78-.22,1.53-.44,2.28-.63,2.64-.71,5.28-1.33,7.92-1.79,1.43-.21,3-.45,4.56-.63,2.42-.27,4.87-.46,6.94-.48,2.39-.11,4.53-.18,6.32-.38,2.56-.32,4.53-.8,6-1.93a11,11,0,0,0,2.17-2.1c.06-.06.14-.17.21-.23s.12-.14.15-.2a4,4,0,0,0,.35-.78,1.25,1.25,0,0,0,.09-.55,1.06,1.06,0,0,0,0-.32,2.52,2.52,0,0,0-.86-1.39L457.9,196.69s0,.06.05.08c-2.58-2.5-10.46-3.32-15.74-4.15a25.25,25.25,0,0,1-2.64-.49,40.11,40.11,0,0,1-1.59-5.77,50.36,50.36,0,0,1-.81-8.11c0-.31-.05-.67-.05-1a68.1,68.1,0,0,1,.44-8.23c.07-.65.15-1.36.26-2,.3-2.46.73-4.88,1.25-7.38.08-.41.15-.83.24-1.25.62-2.74,1.38-5.41,2.19-8.11.28-.94.6-1.81.9-2.74.64-1.92,1.33-3.82,2.05-5.66.35-.88.71-1.75,1.06-2.61.87-2.05,1.78-4,2.71-5.92.24-.48.48-1,.71-1.5,1.18-2.31,2.43-4.47,3.65-6.44.24-.35.44-.66.65-1a61.16,61.16,0,0,1,3.7-5.08c10.62-12.62,28.89-22.34,45.4-24.19a44,44,0,0,1,14.15.67c3.45,12.51.28,28.56-3.9,34.79a37.48,37.48,0,0,1-12.86,11.82c-3.05,1.92-3.47,2.33-3,3.2a1.35,1.35,0,0,0,.63.6c-.05,0-.17,0-.21,0l19.72,17.9a2.15,2.15,0,0,0,1.8.45c2.81-.32,7.32-3.68,9.76-5.61l1.13-.92c1.25-.94,2.55-2,3.8-3.06.39-.35.76-.73,1.15-1,.9-.86,1.8-1.67,2.66-2.57.41-.42.82-.83,1.22-1.28.92-1,1.81-2,2.66-3l.85-1c1.09-1.42,2.11-2.84,3.05-4.33a.66.66,0,0,0,.12-.21c.28-.4.46-.91.75-1.33.42-.79.9-1.57,1.29-2.37l.64-1.68a19.47,19.47,0,0,0,.92-2.38c0-.13.1-.21.12-.33a25.47,25.47,0,0,0,.73-3.25,44.72,44.72,0,0,0,.56-6.94c0-.29-.05-.55-.07-.84,0-.76-.13-1.49-.18-2.22a40,40,0,0,0-.79-4.92c-.18-.77-.4-1.54-.65-2.3a27.61,27.61,0,0,0-1.86-4.32c-.33-.61-.6-1.26-1-1.84a28.29,28.29,0,0,0-4.19-5.4c-.35-.37-.68-.68-1.06-1L520.56,82.44c.38.32.72.65,1.07,1-9-9-25.15-13.46-41.62-11.7-1.12.15-2.25.29-3.36.48-27.8,4.52-55.79,25.87-68.17,52.13-9.93,21.12-8.43,41.84,4,58.54a35.75,35.75,0,0,0,5.89,6c-.46-.38-1-.7-1.38-1.13l13.32,12.11c-.35.05-.72.08-1,.11-1.85.16-3.63.33-5.15.53s-2.89.28-3.77.44c-34.81,7.52-73.92,37.39-78,78.14-1.54,16,3.17,33.94,8.39,42.67a44.34,44.34,0,0,0,8.8,10.05c-.2-.19-.45-.32-.61-.49l19.73,17.94c11.65,10.5,30.63,19.77,46.77,19.48a31,31,0,0,0,4.27-.3,44.44,44.44,0,0,0,7.12-1.32c.8-.2,1.57-.52,2.36-.75,1.54-.48,3.09-1,4.62-1.64.92-.35,1.84-.79,2.75-1.22,1.37-.68,2.71-1.29,4-2.07a32.3,32.3,0,0,0,2.77-1.67c1.28-.78,2.51-1.57,3.72-2.45.91-.67,1.79-1.35,2.66-2,1.17-.94,2.32-1.89,3.46-2.9.81-.78,1.65-1.56,2.44-2.4,1.08-1.06,2.13-2.19,3.16-3.35.74-.85,1.48-1.68,2.18-2.54,1-1.27,2-2.55,2.88-3.91.61-.87,1.23-1.7,1.8-2.61.19-.32.41-.57.58-.87a63.17,63.17,0,0,0,3.19-5.75c1-2.06,1.84-4,2.6-6.06.22-.6.43-1.2.63-1.83.26-.79.58-1.58.82-2.37.15-.46.2-.92.29-1.34.37-1.39.65-2.76.92-4.09.18-.92.36-1.89.46-2.82.19-1.34.26-2.71.32-4,0-.67.13-1.34.14-2,0-.25-.06-.48-.06-.71C485.62,304.55,485.47,303.33,485.35,302.14Z"/><path class="cls-4" d="M725.87,80.3a1.27,1.27,0,0,0-.29-.33c-.27-.24-.68-.64-1-.88L705.83,62a1.94,1.94,0,0,1,.32.39,2.74,2.74,0,0,0-2.77-.89,16.57,16.57,0,0,0-6.07,2.22c-4.38,2.24-9.75,14-13,20.92-.82,1.9-40.07,83.53-42.62,88.79-1.2-1.09-2.4-2.2-3.63-3.29.05,0,.05.06.15.15a19.93,19.93,0,0,0-6.69-3.88,16.27,16.27,0,0,0-8.1-.85c-12.27,1.33-27.82,12-35.83,21.42a69.7,69.7,0,0,0-5.71,8.09c-.12-.15-.17-.32-.28-.4v0l-13.75-12.46-6-5.44h0a7.33,7.33,0,0,1,1,1.44c-1.74-2.61-4.73-3.88-9.24-3.36a16.28,16.28,0,0,0-2,.32c-7.12,1.4-14.35,6.35-18.9,11.18-1.2,1.21-2.34,2.43-3.4,3.46-.89.87-1.67,1.63-2.45,2.43l-11.53-10.47s0,0,0,0l0,0a5.59,5.59,0,0,1,1.22,1.53c-1.2-2.16-3.47-3.31-6.77-3.31-6.58.7-15.07,9-18.28,12.13-9.39,9.1-10.37,13.05-10.11,14.6a2.49,2.49,0,0,0,1.93,1.86,3.38,3.38,0,0,1-1.25-.65h0l8.89,8,2.4,2.18c-12.55,26-25.14,45.42-22.26,47.35l19.75,18c.62.43,2.18.38,3.73.23.49-.08,1-.15,1.44-.2.84-.09,1.49-.15,2.1-.24a4.54,4.54,0,0,0,1.95-.9c.17-.19.37-.34.55-.52a18.06,18.06,0,0,0,1.7-1.67,2.69,2.69,0,0,1,.48-.5c.67-.9,1.39-1.84,2.1-2.83l.57-.87c.56-.83,1.08-1.64,1.59-2.48.09-.15.19-.27.28-.4a5.11,5.11,0,0,1,.33-.58c.47-.8.91-1.52,1.36-2.27a3.85,3.85,0,0,1,.23-.42c.52-.93,1-1.76,1.47-2.53s.87-1.4,1.19-1.95a1.83,1.83,0,0,1,.2-.32l8.26-13.9c.35-.47.67-1,1-1.45.46,2.92,1.48,5.18,3.15,6.59-.07,0-.11-.08-.16-.13v0L544.07,274a1.08,1.08,0,0,0,.18.12c1.74,1.5,4.13,2.11,7.25,1.76,7.08-.75,15.87-6.28,21.1-11.15,1.27-1.2,5.69-5.88,9.4-9.81,4.68,4.23,9.34,8.48,14,12.67a13.72,13.72,0,0,0,5.38,3.07,136.94,136.94,0,0,0-3.52,23.4,41.35,41.35,0,0,0,13.61,32.28l19.73,17.88c7.16,6.35,15.58,9.37,23.8,8.43,7.17-.78,14-4.57,19.74-11.13a39.07,39.07,0,0,0,3.42-4.64c.14-.24.32-.39.46-.62.32-.58.58-1.08.89-1.66a9.21,9.21,0,0,0,.52-1,21.26,21.26,0,0,0,1.43-3.46.15.15,0,0,1,0-.11,4.46,4.46,0,0,0,.08-.59,8.7,8.7,0,0,0,.37-2.32,4.65,4.65,0,0,0,0-.67,4.13,4.13,0,0,0-1.28-2.58L660.88,306c.08.06.08.21.17.27a4.87,4.87,0,0,0-3.74-1.7c-1.67.2-2.52,2.26-3.66,5.85a35.26,35.26,0,0,1-3.46,8.18c-3.4,5.26-9.08,8.52-15.92,9.28a27.35,27.35,0,0,1-5.78,0,2.28,2.28,0,0,1-.11-.38c-.13-.59-.22-1.19-.33-1.82-.18-1-.36-2-.48-3-.07-.65-.13-1.32-.16-2-.09-1-.13-2-.16-3,0-.61,0-1.26,0-1.91,0-1.32.06-2.64.21-4,0-.59.07-1.13.12-1.74.17-1.74.4-3.48.69-5.23,0-.15.05-.27.07-.42.32-1.92.73-3.76,1.19-5.66.11-.56.27-1.16.42-1.77.37-1.32.7-2.69,1.09-4,.15-.55.32-1.13.48-1.68.69-2.22,1.37-4.46,2.14-6.63.12-.29.23-.63.35-1,.7-2,1.4-3.9,2.15-5.78.15-.43.3-.81.47-1.2.76-2,1.54-3.93,2.33-5.79.21-.5.45-1.08.69-1.64.73-1.69,1.43-3.39,2.11-4.93l1.47-3.48c15.2-36,33.16-72.54,50.53-108,6.26-12.66,19.56-39.87,20.31-41.3.44-.72,1-1.68,1.51-2.72a2,2,0,0,0,.36-.63c.57-1,1.16-2.08,1.79-3.28.08-.18.19-.35.28-.51.7-1.33,1.43-2.73,2.15-4.21.12-.23.22-.48.36-.71.59-1.21,1.16-2.41,1.73-3.64.15-.36.34-.77.49-1.06a65.15,65.15,0,0,0,2.82-7.45,2.92,2.92,0,0,1,.2-.71c.06-.32.12-.59.18-.84a15.08,15.08,0,0,0,.48-3.05v-.15s0,0,0-.06A4.26,4.26,0,0,0,725.87,80.3ZM563.58,179.1s.06.06.08.12a11.38,11.38,0,0,1,1,3.32A11.32,11.32,0,0,0,563.58,179.1Zm19.55,46.16c-.09.23-.11.38-.17.56-.1.48-.22.9-.36,1.36C582.77,226.52,582.9,226,583.13,225.27Zm-1.23,4.67c-.08.4-.14.76-.21,1.17,0,.06,0,.13,0,.17C581.77,230.82,581.82,230.38,581.9,229.94Zm-.59,10.6c0,.15.11.26.14.41a.62.62,0,0,0,0,.25C581.42,241,581.37,240.76,581.31,240.54Zm2.34,12.68h0a11.63,11.63,0,0,0,3,0A11.39,11.39,0,0,1,583.65,253.22Zm.63-31.63s0,.06,0,0c.23-.68.41-1.25.65-1.95C584.68,220.37,584.51,221,584.28,221.6Zm26.35,8.84a62.31,62.31,0,0,1-4.93,4.38c.45-1.19.86-2.32,1.34-3.56,1.32-3.31,2.69-6.36,4.08-9.28.43-.85.84-1.62,1.22-2.45,1.07-2.05,2.12-4,3.2-5.82l1.32-2.21a71.89,71.89,0,0,1,4.39-6.24c.13-.17.21-.31.34-.49a46.34,46.34,0,0,1,5-5.28c.46-.47,1-.84,1.46-1.25a35.45,35.45,0,0,1,4-3c.53-.3,1-.65,1.57-1l.14,0C630.18,204.61,618.55,222.37,610.64,230.43Z"/><path class="cls-5" d="M401.18,68.31c1.06.29,1.6.81,1.69,1.58.48,3.3-6.12,10.13-11.86,15-10.24,8.61-24.54,14-42.54,16-21,2.31-42.79-.41-57.42-3.13-10.32-1.95-33-6.33-34.26-6.6-1.39,1.33-31.75,61-54.23,105.63l1.37.8c.08-.15,11.08-13.41,16.66-18.64,3.36-3.19,12.94-10,20.78-10.9,4-.4,7,.83,8.79,3.71,6.08,9.34-4.83,25.75-11.42,35.53l-1.63,2.47c-1.74,2.67-3.14,4.54-4.4,6.32a88.8,88.8,0,0,0-6.88,10.32c-4.37,7.52-9.06,16.57-7,19.86.43.64,1.44,1,3.15.86,2-.2,4.81-1.22,8.73-3.66,5.85-3.62,22.07-20.66,25.6-28.71a49.57,49.57,0,0,1,4.17-15.17c2.31-5.22,10.87-23,24.68-33.34A36.45,36.45,0,0,1,302,159.78c4.56-.52,15.37-.48,17.14,10.56,1.28,8.41-2.08,17.23-10.46,26.68-4.8,5.65-15.89,13-25.27,16.6-4.8,1.95-13.18,3.32-13.84,3.69-.42.55-2.12,10.16-.61,16.6.72,3.48,2.36,5.68,4.7,6.67a8.2,8.2,0,0,0,3.82.33c5.11-.52,11.47-4.23,13.46-6.08,5.4-5.39,8.1-11.22,10-15.55,1.76-3.91,3-6.63,5.27-6.87a4.34,4.34,0,0,1,1.43.12,3.18,3.18,0,0,1,2.59,2.2c1.29,4.8-6.74,15.23-8.92,17.77-7.11,8.07-16.17,13.43-24.16,14.35-8.58.88-15.18-3.23-19.14-12.1-.26-.64-.84-2.35-1.33-3.86-.7-2.29-.89-2.81-1.48-2.74A154.16,154.16,0,0,1,235.94,248a25.68,25.68,0,0,1-12.59,5.17c-4.11.45-7.9-.35-10.47-2.45-2.68-2.28-4.07-5.69-4.19-10.26-.11-7,6.77-18.43,12.91-28.43l2.23-3.71c.33-.55,1.1-1.74,2-3.07,4.19-6.53,12-18.59,13.58-24.12.76-2.85.76-4.63-.09-5.56a2.13,2.13,0,0,0-2-.68c-2.44.25-6.6,3.22-12.77,8.91-11.87,11.05-17.75,19.48-25.88,31.14l-2,3A210,210,0,0,0,181,243.07c-3.13,5.86-9.16,16.16-12.75,16.57-1.4.07-1.93.19-2.52.24-2.43.29-4.35.39-5-.5-1.71-2.36,3.69-12.1,6.52-17.37,1-1.8,70.73-145.26,74.38-152.81l-32.25-8.77c-4.17.77-11.73,8.43-14.68,13.18-6,9.64-10.92,21.22-16,33.47-3.17,7.5-6.42,15.27-10.08,22.86-3.41,7.13-7,14.89-10.8,23-13.3,28.76-28.42,61.33-45.22,84.15-14.13,19.18-33,32-50.55,34.29C39.29,293.92,12.43,277.12,10.7,252c-.67-10.35,3.39-21.72,11-30.32a41.58,41.58,0,0,1,26.86-14.26c7-.8,14.66,2.09,16.47,5a1.89,1.89,0,0,1,.17,2.22,2.26,2.26,0,0,1-1.82,1.33,10.59,10.59,0,0,1-3.57-.59,26.68,26.68,0,0,0-10.93-1.14,30,30,0,0,0-21,12.15c-7.2,9.46-9.72,22.88-6.7,35.86,3.31,14.37,20.69,24,39.66,21.92a50.23,50.23,0,0,0,14.64-3.91c21.77-9.5,36.85-42.69,49-69.39,3-6.39,5.67-12.38,8.38-17.78,5.75-11.56,10.8-22.79,15.63-33.61,12.28-27.37,22.88-51,40.51-70.73,6.45-7.27,11.11-10,11.37-10.18-1.63-.35-32.25-7.6-50.45-11.69-29.58-6.52-61-13.65-91.18-12.86-3.19.08-6.36.33-9.61.67-10.1,1.1-28.4,4.61-36.87,16C8,76.34,6.76,83.34,8.71,91.3c2.37,9.73,18.92,18.88,29.52,22.64,16.13,5.68,39.75,7.65,64.82,4.88,7.54-.83,25.09-4.77,34.49-8.15a29.57,29.57,0,0,1,6.25-1.7c1-.1,1.66,0,1.92.29l.36,1.66c-1,3.25-10.14,7.26-13.15,8.53-7.11,3-18.14,6.59-35.53,8.53-6.26.68-13.38,1.19-21.39,1.29-24.91.48-59.63-9.66-71.17-27.8C-1,92.43-1.54,83.09,3.21,73.88,11.26,58,32.15,47.1,48.59,44.52c2.25-.42,4.56-.71,6.87-1,29.77-3.29,60.35,3.25,90,9.48l7.31,1.45c29.65,6.13,53,11.28,71.54,15.54,7.79,1.81,21.87,5.73,22.6,5.93l1-.46c.37-.73,7.28-14.7,20.95-44.13C274.37,19.49,282.37,1.47,288.08.28A9.5,9.5,0,0,1,289.5.09a8.81,8.81,0,0,1,5.73,1.07c2.3,1-2.54,9.17-4.68,13.71-16.87,36.47-28.4,62.84-28.49,63,.56,1,18.86,4.91,24.07,5.89l4.54.86c19.17,3.58,45.41,8.48,68.14,6,9.93-1.12,18.39-3.58,25.18-7.33,4.5-2.56,8.31-6.69,11.37-10.12C397.63,70.76,399.93,68.56,401.18,68.31Zm-108,101.26c-10.86,8-21.7,38.1-22.09,39.32l.11.82.67.2c17.64-3.44,32.36-19.32,36.51-32.6,1.45-4.7,1.29-8.2-.4-10.14-1.17-1.36-3.12-1.9-5.45-1.67a21.11,21.11,0,0,0-9.35,4.07"/><path class="cls-5" d="M480,71.75c16.47-1.76,32.63,2.67,41.62,11.7,7.28,7.27,10,16.93,8.16,28.77-1.58,10.72-11.3,21.4-19.92,27.91l-1.17.92c-2.44,1.89-7,5.25-9.77,5.56a1.88,1.88,0,0,1-2.18-1c-.48-.87-.06-1.28,3-3.2a37.48,37.48,0,0,0,12.86-11.82c5.89-8.74,9.82-37.08-3.93-47.4-6.61-5-15.66-7.09-26-5.93-16.54,1.82-34.82,11.5-45.41,24.16-10.84,12.87-23.32,44.67-19,67,2.05,10.8,7.77,18.4,16.79,22.49a47.76,47.76,0,0,0,7.17,1.68c6.11,1,15.76,1.91,16.56,5.43.19,1.13-.8,2.52-2.94,4.2a11.68,11.68,0,0,1-6,1.89c-1.8.22-3.93.26-6.32.39-2.07,0-4.52.21-7,.48-1.57.19-3.13.37-4.57.62-34.38,6.24-72.3,30.81-75.4,81.16-1.16,19.31,4.61,36.27,15.82,46.51,9.21,8.4,21.84,12,36.46,10.35a79.65,79.65,0,0,0,11.18-2.11c10.45-2.87,19.93-10.48,26.61-21.42A61.12,61.12,0,0,0,453,271.39c-2.91-10.2-10.26-12.26-14.7-13.56-2.53-.71-3.57-1.11-3.38-1.93a2.83,2.83,0,0,1,2.8-2.28c5.07-.53,15.43,4.87,20.33,11.23,9.93,12.83,10.52,30.43,1.72,48.17-10,20.35-29.78,35.38-49.7,37.56-1.46.12-2.84.26-4.29.26-20.91.39-46.69-15.28-54.93-29.05-5.22-8.73-9.93-26.7-8.39-42.67,4-40.75,43.15-70.63,78-78.14.88-.16,2.22-.32,3.77-.44s3.3-.38,5.15-.53,5.34-.58,5.52-.62c.46,0,4.88-.53-.05-1.53-1.57-.36-14.61-4.73-22.29-15-12.47-16.7-14-37.42-4-58.54,12.38-26.26,40.37-47.61,68.17-52.13C477.76,72,478.89,71.89,480,71.75Z"/><path class="cls-5" d="M703.38,61.53a2.74,2.74,0,0,1,2.77.89c3.12,4.68-8.09,24.74-11.8,31.37-.79,1.41-14.08,28.64-20.36,41.3-17.33,35.38-35.31,72-50.49,108L622,246.52c-8.09,18.9-21.65,50.68-10,72.18,3.33,6.29,13,10.23,22.28,9.2,6.84-.75,12.53-4,15.92-9.28a35.26,35.26,0,0,0,3.46-8.18c1.14-3.59,2-5.65,3.66-5.85a5,5,0,0,1,2.88.91,4.11,4.11,0,0,1,2,3.09c.47,4.14-3.33,10.68-7.19,15-5.74,6.54-12.55,10.37-19.72,11.12-8.26.9-16.63-2-23.79-8.4a41.35,41.35,0,0,1-13.61-32.28c.28-7.54,2-17.63,4.65-28.47,1.55-6.22,8.68-25,8.75-25.27-1.19-.92-1.19-.88-2.32.06-9.55,7.88-17,12.19-22.31,12.83-8.48.92-14.36-6.33-16.24-13.51a39.17,39.17,0,0,1-.5-4.16c-.26-3-.45-4.08-1.08-4.49l-1.08.15c-.08.11-12.59,13.47-14.88,15.63-5.22,4.88-14,10.4-21.11,11.22-3.09.3-5.49-.31-7.23-1.8-2.39-2-3.49-5.68-3.5-10.88.2-10.64,10-24.75,18.7-37.3,4.84-6.94,9.41-13.57,12.16-19.13,1.57-3.23,2-5.25,1.14-6.32a2.17,2.17,0,0,0-2.17-.76c-4.11.45-12.74,7.55-12.81,7.61-19,15.64-28.85,31.06-37.39,43.77l-8.29,13.84c-.32.58-.82,1.43-1.4,2.34-3,5.23-8.76,15.49-12.58,15.9-.62.07-1.27.17-2.1.23-.46.08-1,.12-1.41.21-1.57.18-3.15.22-3.76-.27-3.2-2.14,12.51-25.46,26.1-55.52,2.53-5.64,9-18.75,8-20.35a2.16,2.16,0,0,0-2.05-1.21c-1.72.22-4.42,2.58-9.34,8.87-3.67,4.68-6.76,10.87-10.46,11.28a2.49,2.49,0,0,1-1.93-1.86c-.26-1.55.71-5.5,10.11-14.6,3.22-3.15,11.7-11.43,18.28-12.13,3.3,0,5.58,1.15,6.77,3.31,2.74,5.14-6.6,25.91-6.41,26.15.56-.07,9.34-9.29,12.36-12.59,2-2.19,4.12-4.48,6.83-7.06,1.06-1,2.2-2.24,3.4-3.46,4.55-4.82,11.78-9.77,18.9-11.18a16.28,16.28,0,0,1,2-.32c6.63-.75,10.11,2.09,11,7.69,1.48,9.34-5.7,18.88-11.4,26.51-1.82,2.38-3.51,4.63-4.7,6.56-.62,1.12-1.54,2.44-2.59,4-3.62,5.57-8.68,13.16-11.14,20.2-2.58,7.5-2,9.5-1.22,10.42a2.14,2.14,0,0,0,2,.7c3.6-.4,10.23-7,16-13,5-5.25,14.59-15.65,19.1-21.43.05-.24,8.49-19.38,16.91-29.43,8-9.46,23.57-20.09,35.83-21.42a16.27,16.27,0,0,1,8.1.85c8.56,3.36,8.53,6.84,8.53,6.93l.63.79.93-.52c2.11-4.35,41.86-87.07,42.69-89,3.22-6.95,8.59-18.68,13-20.92A16.57,16.57,0,0,1,703.38,61.53ZM634.65,190.86c1.27-7.13.4-12.41-2.44-15.43-2.05-2.12-5-2.95-8.6-2.55a19.19,19.19,0,0,0-4.2.93c-12.64,4.16-23.18,17.1-32.08,39.52-7.17,17.9-8.26,28.14-3.47,31.32a5,5,0,0,0,3.35.62c7-.76,19.61-10.9,23.43-14.84,8.83-9,22.38-30.17,24-39.58"/></g></g></svg>